<svg xmlns="http://www.w3.org/2000/svg" xmlns:xlink="http://www.w3.org/1999/xlink" width="354" height="354" xmlns:v="https://vecta.io/nano"><style><![CDATA[.B{fill:rgb(1.960784%,2.745098%,3.137255%)}.C{stroke:rgb(1.960784%,2.745098%,3.137255%)}.D{fill:rgb(91.764706%,66.666667%,49.803922%)}.E{stroke:rgb(91.764706%,66.666667%,49.803922%)}.F{fill:rgb(94.901961%,58.823529%,46.27451%)}.G{stroke:rgb(94.901961%,58.823529%,46.27451%)}.H{fill:rgb(100%,100%,100%)}.I{stroke:rgb(100%,100%,100%)}.J{fill:rgb(71.372549%,70.588235%,70.588235%)}.K{stroke:rgb(71.372549%,70.588235%,70.588235%)}.L{fill:rgb(82.745098%,12.54902%,15.294118%)}.M{stroke:rgb(82.745098%,12.54902%,15.294118%)}.N{fill:rgb(54.509804%,18.431373%,15.294118%)}.O{stroke:rgb(54.509804%,18.431373%,15.294118%)}.P{fill:rgb(23.921569%,33.72549%,48.235294%)}.Q{stroke:rgb(23.921569%,33.72549%,48.235294%)}.R{fill:rgb(22.745098%,70.980392%,30.196078%)}.S{stroke:rgb(22.745098%,70.980392%,30.196078%)}.T{fill:rgb(25.882353%,45.490196%,72.941176%)}.U{stroke:rgb(25.882353%,45.490196%,72.941176%)}.V{stroke-width:.162}.W{fill:rgb(21.960784%,47.45098%,25.490196%)}.X{stroke:rgb(21.960784%,47.45098%,25.490196%)}.Y{fill:rgb(21.960784%,47.843137%,25.490196%)}.Z{stroke:rgb(21.960784%,47.843137%,25.490196%)}.a{fill:rgb(32.941176%,32.156863%,31.764706%)}.b{stroke:rgb(32.941176%,32.156863%,31.764706%)}.c{fill:rgb(29.411765%,16.862745%,9.411765%)}.d{stroke:rgb(29.411765%,16.862745%,9.411765%)}.e{fill:rgb(60.392157%,38.039216%,32.54902%)}.f{stroke:rgb(60.392157%,38.039216%,32.54902%)}.g{fill:rgb(39.215686%,27.45098%,20.784314%)}.h{stroke:rgb(39.215686%,27.45098%,20.784314%)}.i{fill:rgb(12.54902%,24.705882%,59.607843%)}.j{stroke:rgb(12.54902%,24.705882%,59.607843%)}.k{fill:rgb(54.117647%,54.901961%,21.960784%)}.l{stroke:rgb(54.117647%,54.901961%,21.960784%)}.m{fill:rgb(88.235294%,89.411765%,14.509804%)}.n{stroke:rgb(88.235294%,89.411765%,14.509804%)}]]></style><defs><filter id="A" x="0%" y="0%" width="100%" height="100%"><feColorMatrix in="SourceGraphic" values="0 0 0 0 1 0 0 0 0 1 0 0 0 0 1 0 0 0 1 0"/></filter><mask id="B"><g filter="url(#A)"><path d="M0 0h354v354H0z" fill="rgb(0%,0%,0%)" fill-opacity=".502" stroke="none"/></g></mask><clipPath id="C"><path d="M0 0h354v354H0z"/></clipPath><g id="D" clip-path="url(#C)"><path d="M1531.103 1002.28c3.3.192-1.601 2.929 0 0zm0 0" transform="scale(.160982 .162684)" fill-rule="nonzero" fill="rgb(0.784314%,1.176471%,1.568627%)" fill-opacity="1" stroke-width="1" stroke-linecap="butt" stroke-linejoin="miter" stroke="rgb(0.784314%,1.176471%,1.568627%)" stroke-opacity="1" stroke-miterlimit="4"/></g></defs><g class="V"><path d="M146.41 16.039c3.305-.77 6.738-.52 10.07-.07 7.121 1.051 13.984 3.285 20.894 5.23 3.711 1.152 7.203 2.895 10.652 4.676 5.707 3.051 11.238 6.438 16.613 10.047.355.293.816.094 1.219.039 1.434-.316 2.895-.48 4.348-.672 1.512-.184 2.941-.758 4.371-1.273 4.742-1.836 9.512-3.684 14.492-4.754 3.59-.824 7.277-1.176 10.953-1.117 6.07-.09 12.148.473 18.121 1.566 3.422.711 6.953 1.48 9.918 3.453 5.187 3.266 10.195 6.805 15.199 10.348 5.07 3.578 10.062 7.258 14.941 11.094 2.258 1.816 4.594 3.574 6.539 5.742 3.004 3.633 5.645 7.547 8.355 11.398.594.801 1.098 1.719 1.977 2.246 1.844 1.148 3.93 1.809 5.922 2.648 2.203.941 4.414 2 6.215 3.629 2.078 1.957 3.789 4.285 5.223 6.758 3.137 5.512 4.395 11.875 4.934 18.145.504 4.281-.711 8.551-2.391 12.438-2.547 5.754-6.145 10.969-10.062 15.848-1.785 2.195-3.641 4.336-5.664 6.313-.82.902-1.918 1.574-2.488 2.688-.488.965-.762 2.02-1.266 2.973-.703 1.391-1.641 2.637-2.66 3.801-.965 1.031-1.953 2.07-3.137 2.848-2.297 1.574-5.059 2.156-7.59 3.227-2.895 1.172-5.598 2.754-8.309 4.297-2.992 1.715-5.762 3.781-8.457 5.934-1.906 1.484-3.738 3.078-5.715 4.469-1.129.762-2.305 1.512-3.641 1.844-1.512.426-3.109-.039-4.621.406-2.715.734-5.059 2.375-7.398 3.883-5.547 3.758-10.836 7.879-16.047 12.094-.43.379-1.008.66-1.227 1.219-1.754 5.32-3.672 10.656-6.625 15.434-.426 1.113-.582 2.313-.922 3.453-1.051 3.801-2.211 7.629-4.184 11.063-4.707 7.746-9.922 15.199-15.836 22.059-3.902 4.457-8.094 8.723-12.953 12.117-2.371 1.613-4.934 3.02-7.723 3.734-3.711.984-7.555 1.301-11.375 1.539l-2.191 6.91c-.375 1.32-.926 2.586-1.227 3.926l12.437 11.086c.668.613 1.57 1.066 1.91 1.969.445 1.16.113 2.426-.176 3.586-.316 1.281-1.02 2.406-1.594 3.578-1.613 3.172-3.375 6.262-5.008 9.426 1.789 1.258 3.523 2.617 4.965 4.277.414.547 1.102.68 1.703.91 3.641 1.348 7.246 2.789 10.797 4.363 2.145.977 4.297 1.961 6.277 3.25.75.469 1.348 1.125 1.984 1.734 1.953 1.758 4.105 3.27 6.285 4.723.758.484 1.465 1.09 2.324 1.402 2.887.961 5.754 2.09 8.305 3.789.824.508 1.82.805 2.465 1.574.543.66.453 1.598.195 2.363-.289.723-.047 1.492.047 2.23l3.82 24.055h-2.277l-3.98-25.164c-.156-.723.027-1.449.254-2.129-.703-.473-1.469-.84-2.234-1.188-.883-.395-1.723-.891-2.645-1.184.133 1.047.555 2.023.824 3.039.473 1.707 1.113 3.379 1.293 5.152l1.699 14.617c.27 2.285.605 4.563.801 6.855h-2.191c-.309-1.715-.437-3.457-.672-5.184l-1.855-15.629c-.125-1.766-.762-3.434-1.242-5.117-.535-1.734-.98-3.508-1.613-5.207-.84-.609-1.973-.609-2.832-1.199-2.602-1.664-5.156-3.422-7.527-5.406-.984-.789-1.766-1.82-2.871-2.453-2.812-1.684-5.836-2.957-8.844-4.238-1.969-.781-3.914-1.637-5.922-2.313.559 2.84.84 5.73 1.535 8.543l4.191 18.219c.383 1.738.875 3.453 1.113 5.223.223 1.418.418 2.84.695 4.25.469 3.512 1.09 7.004 1.594 10.512h-3.07l-1.855-14.367c-.312-2.168-.449-4.371-1.012-6.492l-4.121-17.957c-.477-1.934-.547-3.949-1.117-5.859-.336-1.16-.633-2.371-1.355-3.359-.664-.895-1.422-1.727-2.301-2.41 1.012 5.004 2.367 9.949 2.988 15.031L201.05 354h-2.262c-.41-2.047-.617-4.129-.953-6.191l-4.129-28.199c-.695-5.531-2.078-10.934-3.289-16.363a14.64 14.64 0 0 0-.395-1.316v4.082c-.012.984-.367 2.02-1.152 2.648-.461.344-.992.566-1.508.809 1.762 2.969 3.598 5.914 4.996 9.086.496 1.117.301 2.371.336 3.559.121 3.305.043 6.617.066 9.926.023 2.328-.07 4.66.09 6.988l.004 14.973h-2.254l.004-14.152c-.133-4.828-.043-9.656-.066-14.48.043-1.25-.129-2.492-.098-3.742.004-.832.102-1.719-.297-2.48a73.02 73.02 0 0 0-4.039-7.305c-.957-1.496-1.961-2.969-3.133-4.301-1.102-1.281-2.723-1.867-4.195-2.582-5.762-2.508-11.703-4.551-17.547-6.836-2.883-1.117-5.77-2.23-8.566-3.551-1.484-.715-2.984-1.461-4.23-2.559-2.551-2.188-4.797-4.699-7.195-7.047-8.258-8.691-16.297-17.598-24.266-26.559-.961-1.246-2.371-1.98-3.652-2.828-1.199-.75-2.41-1.504-3.695-2.105-1.84-.844-3.945-.418-5.785.188 2.539 1.637 5.184 3.125 7.59 4.969 2.047 1.484 3.797 3.328 5.516 5.172 4.488 4.941 8.316 10.441 12.711 15.465 7.496 8.691 16.121 16.441 25.828 22.535 7.871 4.988 16.375 8.898 25.125 12.027.449.148.859.449 1.039.906.484 1.086.586 2.289.801 3.449.953 6.563 1.246 13.199 1.93 19.793.418 5.336.488 10.777-.723 16.023h-2.293c.66-2.988 1.055-6.047 1.031-9.109.031-2.988-.176-5.977-.484-8.945-.488-5.652-.855-11.316-1.613-16.941-.176-.996-.258-2.02-.594-2.973-.766-.488-1.687-.66-2.512-1.016-11.383-4.277-22.273-10.035-31.883-17.566-3.641-2.852-7.133-5.898-10.391-9.188-1.016-.875-1.84-1.938-2.812-2.855a138.49 138.49 0 0 1-6.953-7.941c-3.801-4.66-7.336-9.57-11.559-13.859-3.598-3.82-8.297-6.242-12.668-9.016-.555-.406-1.227.043-1.828.066-3.254.32-6.527.391-9.773.738 2.805 3.75 5.754 7.398 8.312 11.332.777 1.219 1.645 2.438 1.961 3.879l5.012 23.422c.262 1.332.676 2.645.695 4.008.152 2.078-.008 4.16.113 6.238-.094 1.066-.039 2.133.023 3.199l-.004 13.348c-.129 1.512-.051 3.027-.086 4.543-.148 2.086.008 4.234-.629 6.254-.926 3.023-2.258 5.898-3.578 8.766l-3.805 7.871c-1.023 1.902-1.926 3.867-2.996 5.746h-2.527c.953-1.93 1.996-3.816 2.949-5.746 1.219-2.504 2.527-4.961 3.668-7.504 1.434-3.215 2.867-6.434 4.043-9.754.687-1.809.461-3.77.621-5.656.055-1.676 0-3.348.094-5.016l-.07-15.129c-.027-2.387.078-4.773-.074-7.156-.051-1.094-.359-2.145-.57-3.211l-5.012-23.402c-.262-1.324-1.098-2.422-1.789-3.543-2.867-4.262-6.039-8.297-9.191-12.344-.309-.426-.773-.684-1.266-.82-3.293-1.02-6.828-1.387-10.238-.781-2.684.512-5.117 1.84-7.496 3.141-2.73 1.563-5.324 3.359-7.844 5.246-1.152.887-2.324 1.758-3.32 2.824-1.98 2.082-3.77 4.344-5.508 6.633-2.316 3.109-4.578 6.266-6.676 9.531.906-.414 1.75-.945 2.625-1.418.406-.219.781-.504 1.043-.891 1.824-2.645 3.629-5.309 5.645-7.813 1.301-1.652 2.785-3.148 4.305-4.59 1.902-1.695 3.98-3.172 6.09-4.582 2.852-1.867 5.836-3.57 9.051-4.703 2.262-.805 4.684-1.359 7.086-1.059 1.219.141 2.402.563 3.43 1.246.316.195.492.535.687.844.273.441.676.785 1.031 1.16 2.113 2.234 4.152 4.574 5.715 7.238 1.184 1.98 1.715 4.254 2.34 6.453 1.863 7.117 3.367 14.336 4.543 21.602.387 2.379.707 4.77.922 7.172.211 2.035.234 4.109-.125 6.129-.582 3.129-1.422 6.203-2.273 9.266-3.508 12.324-7.551 24.488-11.617 36.633h-2.414l6.07-18.289c2.52-7.969 5.082-15.934 7.129-24.043.461-1.918.996-3.836 1.094-5.813.133-2.188-.164-4.363-.41-6.527-.875-6.73-2.207-13.387-3.719-19.996-.734-3.004-1.43-6.027-2.398-8.965-.715-2.285-2.191-4.207-3.652-6.051-1.129-1.398-2.371-2.699-3.613-3.992-1.102.574-2.113 1.309-3.18 1.941l-26.098 16.25c-2.613 1.68-5.293 3.254-8.008 4.762-4.574 3.051-9.117 6.16-13.867 8.93-1.426.824-2.887 1.582-4.398 2.234-1.086.5-2.195 1.07-2.973 2.016-.879 1.07-1.168 2.523-2.152 3.52-1.289 1.352-3.109 1.945-4.766 2.684-2.023.898-4.18 1.57-6.004 2.867-3.57 3.285-7.445 6.211-11.273 9.184v-2.91c3.348-2.598 6.711-5.184 9.824-8.066 2.531-1.871 5.648-2.609 8.422-4.016.789-.418 1.66-.77 2.277-1.438.508-.813.852-1.719 1.371-2.523a6.75 6.75 0 0 1 2.051-2.152c1.508-1.09 3.316-1.605 4.922-2.516 2.984-1.645 5.852-3.492 8.711-5.348.57-.398 1.211-.703 1.707-1.195.578-1.16 1.402-2.168 2.086-3.266 2.793-4.242 5.699-8.41 8.797-12.43 1.727-2.199 3.484-4.383 5.523-6.293 1.02-.934 2.156-1.723 3.25-2.566 2.883-2.145 5.871-4.152 9.047-5.824 2.422-1.238 4.98-2.352 7.703-2.641 3.266-.371 6.598-.039 9.754.859.977.25 1.887.875 2.937.746l7.527-.543c1.105-.32 2.266.008 3.375-.293 1.687-.441 3.387-.84 5.102-1.18 1.449-.359 2.957-.5 4.441-.297-.246-1.074-.738-2.32-.121-3.344.992-1.203 2.391-1.953 3.691-2.766 1.031-.672 2.164-1.195 3.125-1.977-.324-1.59-.859-3.129-1.109-4.734-.113-.906-.07-1.977.664-2.625.648-.672 1.641-.645 2.496-.598.094-1.855-.098-3.707-.066-5.563-.109-1.242-.051-2.484-.102-3.727-.09-1.027-.02-2.063-.074-3.09-.066-1.027-.109-2.063-.027-3.09.012-.332.152-.703-.082-.988-1.59-2.492-3.152-5.039-4.156-7.836-.984-3.219-1.465-6.574-1.758-9.918-.77.148-1.437.598-2.199.77-1.848.527-3.906.355-5.582-.613-1.418-.785-2.496-2.063-3.344-3.426-1.684-2.699-2.598-5.777-4.043-8.594-1.039-2.051-2.621-3.746-4.309-5.27-2.527-2.277-5.348-4.223-7.699-6.695-2.441-2.414-4.305-5.48-5.043-8.863-.465-2.055-.336-4.234.395-6.211-1.59-.711-3.195-1.41-4.648-2.383-3.914-2.527-6.906-6.324-8.875-10.539-2.652-5.699-3.68-12.02-3.973-18.266.008-1.734-.187-3.469-.035-5.203l.125-4.836c.383-4.273 1.336-8.461 2.289-12.637.723-2.965 1.445-5.934 2.309-8.859 1-3.457 1.309-7.063 1.566-10.637.309-2.145.184-4.316.32-6.473.07-4.492.23-8.988.437-13.48.215-3.656.398-7.332 1.035-10.949.539-2.977 1.879-5.813 3.965-8 2.18-2.266 4.754-4.086 7.137-6.121 1.246-1.184 2.453-2.414 3.809-3.473 1.613-1.082 3.484-1.672 5.316-2.25 3.762-1.129 7.602-1.961 11.445-2.75 8.113-1.609 16.285-2.918 24.473-4.078.629-.113 1.297-.102 1.895-.348.645-.547 1.137-1.258 1.738-1.852l3.379-3.418c2.363-2.242 4.824-4.398 7.508-6.242 1.762-1.195 3.613-2.355 5.711-2.832m7.941 2.199c3 1.02 5.996 2.074 8.891 3.383 2.301 1.035 4.59 2.176 6.539 3.809 1.164.988 2.293 2.023 3.297 3.18 2.867 3.133 5.336 6.617 7.586 10.227.801 1.402 1.793 2.754 2.137 4.371a248.34 248.34 0 0 1 1.719 7.594c.457-.215.75-.66 1.113-1 3.016-2.98 6.187-5.801 9.402-8.563 1.988-1.82 4.297-3.289 6.836-4.199-.773-.516-1.598-.949-2.395-1.426l-18.105-10.336c-1.453-.824-3.078-1.246-4.641-1.793-4.152-1.301-8.324-2.523-12.539-3.598-3.242-.742-6.516-1.434-9.84-1.648m-9.148 1.766c-5.652 3.066-10.879 7-15.25 11.762-.227.227-.414.488-.531.793l-.105.043c-.883.121-1.758.254-2.645.316l-.035.09c-1.805.152-3.586.508-5.379.746-7.992 1.227-15.977 2.551-23.871 4.32-3.012.711-6.039 1.422-8.937 2.535-.773.316-1.57.605-2.242 1.121-2.113 1.754-4 3.766-5.934 5.715-1.617 1.781-3.309 3.504-4.793 5.398-.914 1.996-1.547 4.168-1.648 6.375.012 1.031.215 2.355 1.297 2.785.984.332 2.043.371 3.07.422.637.047 1.273.207 1.914.156.637-.367 1.195-.855 1.812-1.254.754-.555 1.602-.973 2.297-1.609 1.437-.75 2.805-1.637 4.266-2.348 6.312-3.297 13.277-5.512 20.414-5.75 2.223-.195 4.445.137 6.66.254.293.129.613.184.934.23 4.863.781 9.539 2.59 13.773 5.125 4.023 2.406 7.652 5.441 10.922 8.813 3.527 3.703 6.676 7.773 9.453 12.082.406.645.906 1.238 1.195 1.957-.555-.566-.953-1.258-1.437-1.879-2.805-3.836-6.008-7.367-9.496-10.578-3.984-3.648-8.418-6.82-13.25-9.223-5.691-2.801-11.988-4.512-18.348-4.457-5.937-.109-11.832 1.281-17.289 3.586-.531.227-1.086.41-1.551.762-.434.09-.828.305-1.227.492-2.406 1.18-4.742 2.508-6.969 3.996 3.184.352 6.379.66 9.531 1.238 2.273.422 4.555.945 6.672 1.902 1.25.598 2.543 1.41 3.082 2.77.488 1.281.359 2.695.289 4.039-.437 3.828-1.695 7.492-2.461 11.254-.59 2.879-.996 5.816-.848 8.758.789-.719 1.41-1.605 2.234-2.293 2.574-2.441 5.523-4.477 8.711-6.004 6.344-3.055 13.445-4.176 20.426-4.184l.437-.059c3.238.156 6.484.355 9.695.828 5.578.793 11.074 2.133 16.402 3.984.676-1.777 1.277-3.594 2.125-5.301a17.29 17.29 0 0 1 4.223-5.328c1.457-1.32 3.176-2.301 4.672-3.57 2.77-2.34 5.328-4.93 7.727-7.652 1.852-2.121 3.691-4.301 4.996-6.82.555-1.027 1.293-1.934 2.023-2.84.242-.219.094-.555.039-.824-.953-3.316-1.945-6.629-3.09-9.887-.609-1.668-1.215-3.352-2.062-4.914-.605-1.031-1.488-1.848-2.262-2.746-2.836-3.043-5.746-6.031-8.937-8.695-.816-.727-1.84-1.133-2.852-1.5-5.453-1.938-10.996-3.598-16.531-5.277-.473-.195-.906.152-1.312.344m87.683 10.867c-3.75.57-7.418 1.594-10.992 2.863-3.176 1.09-6.254 2.465-9.469 3.43-1.336.422-2.746.457-4.113.695-3.098.457-6.219 1.234-8.906 2.914-.996.594-1.871 1.363-2.754 2.113-2.609 2.23-5.187 4.504-7.68 6.875-.91.926-1.902 1.762-2.762 2.738-1.352 1.461-2.746 2.91-3.82 4.594-.617 1.102-1.23 2.207-1.969 3.23-1.957 2.699-4.152 5.223-6.5 7.574-2.047 2.121-4.211 4.129-6.559 5.902-1.504 1.055-3.008 2.141-4.27 3.492-1.609 1.547-2.633 3.582-3.437 5.648-.93 2.414-1.762 4.871-2.832 7.23-.855 1.855-1.797 3.719-3.16 5.25-1.082 1.094-2.336 1.988-3.57 2.887-4.738 3.383-9.699 6.43-14.617 9.531.066.895.281 1.902 1.086 2.426 1.152.746 2.605.555 3.883.301 3.75-.727 7.555-1.086 11.344-1.52 1.758-.203 3.527-.301 5.281-.547l22.621-31.848c3.699-5.023 7.402-10.055 11.344-14.891 3.867-4.793 8.578-8.906 13.891-11.98 5.383-3.121 11.383-5.152 17.539-5.934 4.273-.563 8.598-.559 12.895-.402 11.004.523 21.973 2.992 31.977 7.703 5.391 2.527 10.422 5.777 15.145 9.414.652.457 1.223 1.047 1.945 1.398.73.859 1.707 1.453 2.531 2.223 2.457 2.109 4.859 4.297 7.152 6.598 1.109.938 1.992 2.098 3.043 3.098 1.992 1.996 3.645 4.387 6.031 5.945 1.238.844 2.637 1.379 3.988 1.996 2.277.992 4.352 2.473 5.973 4.371 1.93 2.223 3.41 4.805 4.699 7.449 1.617 3.324 2.902 6.813 3.891 10.379.887 3.266 1.617 6.617 1.586 10.02 0 1.68-.523 3.297-1.082 4.855-1.91 5.098-4.605 9.867-7.699 14.316-1.77 2.566-3.82 4.914-5.898 7.223-.73.883-1.602 1.645-2.273 2.574-.68.496-1.18 1.203-1.828 1.738-4.492 4.355-9.836 7.684-15.352 10.539l-8.156 4.117c-3.277 1.746-6.5 3.598-9.695 5.488-.953.613-1.988 1.094-2.875 1.797-.43.063-.777.43-1.156.629-5.754 3.527-11.441 7.16-17.043 10.926-.207.145-.461.18-.703.191l-.336 5.746c2.211-1.602 4.32-3.344 6.52-4.961 2.422-1.859 4.914-3.637 7.457-5.324 2.371-1.57 4.824-3.105 7.578-3.879 1.113-.238 2.246-.293 3.383-.242 1.703.07 3.148-.973 4.484-1.902 2.141-1.563 4.152-3.293 6.25-4.91 2.586-2.047 5.289-3.949 8.156-5.582 2.895-1.648 5.805-3.313 8.93-4.492 2.582-1.02 5.437-1.645 7.555-3.578 1.953-1.824 3.746-3.969 4.613-6.551.242-.711.641-1.352.91-2.055.484-.414.812-1 1.32-1.398 2.355-2.066 4.391-4.469 6.406-6.867 3.746-4.602 7.187-9.516 9.719-14.918 1.437-3.145 2.598-6.5 2.727-9.992.012-1.234-.168-2.461-.277-3.688-.535-4.777-1.488-9.586-3.594-13.93-1.246-2.609-2.926-5-4.863-7.125-2.773-2.957-6.773-4.094-10.375-5.648-1.52-.664-3.062-1.492-4.047-2.887l-5.852-8.23c-1.555-2.039-2.996-4.219-4.957-5.895-2.441-2.164-5.035-4.141-7.609-6.137a504.47 504.47 0 0 0-14.793-10.762c-1.031-.699-2.008-1.488-3.102-2.082-.395-.43-.918-.699-1.379-1.043l-7.785-5.141c-.855-.535-1.738-1.023-2.691-1.352-3.125-1.133-6.414-1.719-9.691-2.227-4.539-.637-9.121-1.043-13.707-.961-2.547-.055-5.098.09-7.621.449m-26.176 20.547c-5.402 3.016-10.176 7.148-14.051 11.996-1.789 2.164-3.484 4.402-5.191 6.625-7.473 9.91-14.656 20.035-21.812 30.176-1.832 2.68-3.785 5.277-5.543 8.016 7.531-.57 15.055-1.258 22.602-1.512 1.867-.086 3.723.234 5.582.203l.238.094c8.055.758 16.074 1.863 24.078 3.043 3.312.48 6.602 1.109 9.898 1.676 3.434.652 6.895 1.383 10.102 2.824 1.059.457 2.016 1.121 3.055 1.629 1.734.918 3.582 1.582 5.367 2.387 2.117.969 4.277 2.043 5.855 3.824.648.613.941 1.523 1.672 2.055 4.117 3.199 8.453 6.117 12.992 8.664 5.254 2.945 10.812 5.379 16.621 6.965 5.551 1.492 11.371 2.207 17.094 1.484-.609.352-1.324.414-2 .559-2.391.477-4.836.52-7.262.582-.727-.133-1.469-.094-2.195-.18-4.109-.332-8.172-1.168-12.102-2.406-1.223-.391-2.426-.848-3.66-1.188-.434-.254-.902-.426-1.367-.602a82.44 82.44 0 0 1-9.113-4.438c-2.461-1.348-4.777-2.93-7.145-4.426.09.301.187.605.309.906 1.273 3.152 2.273 6.449 2.664 9.844a29.43 29.43 0 0 1-.281 8.859c-.715 4.125-1.945 8.141-3.34 12.078-.332 1.008-.789 1.977-1.074 2.996.594 2.789 1.406 5.578 1.469 8.457.027 1.043-.25 2.059-.32 3.098.406-.23.801-.488 1.191-.754 5.297-3.52 10.676-6.918 16.098-10.242 6.367-3.813 12.809-7.531 19.508-10.727 5.633-2.816 11.156-6.043 15.77-10.406 2.066-1.867 3.883-3.992 5.742-6.074 3.559-3.855 6.477-8.273 8.965-12.898 1.402-2.66 2.719-5.398 3.555-8.301.742-2.434.266-5.008-.148-7.457-1.164-5.75-3.137-11.344-5.918-16.496-1.43-2.469-3.055-4.914-5.336-6.652-1.852-1.434-4.117-2.117-6.148-3.223-1.496-.805-2.844-1.863-4.043-3.066-6.82-7.727-14.426-14.797-22.934-20.59-.371-.215-.687-.598-1.125-.648-.578-.531-1.281-.879-1.93-1.305-7.312-4.484-15.437-7.543-23.797-9.328-7.535-1.609-15.285-2.195-22.973-1.773-6.84.402-13.617 2.289-19.617 5.652M71.644 62.629c-.527 6.492-.691 13-.844 19.508-.125 2.063-.004 4.145-.289 6.199l-.437 5.242c-.305 1.82-.57 3.652-1.062 5.438-.785 2.816-1.625 5.625-2.18 8.5-.328.832-.422 1.734-.668 2.594-.742 3.426-1.5 6.859-1.836 10.355l-.168 6.43c.051 2.348.082 4.703.34 7.043.574 5.734 1.941 11.52 4.957 16.473 2.477 4.105 6.297 7.465 10.832 9.012 2.785-2.809 6.27-4.992 10.133-5.852-1.77-6.055-1.949-12.457-1.551-18.711.098-1.754.383-3.492.469-5.246.254-.934.305-1.906.5-2.852 1.16-7.039 3.113-13.926 5.523-20.629.164-.473.309-.953.57-1.383-.867 3.504-1.77 7-2.484 10.539-.844 3.863-1.496 7.77-2.07 11.684-.844 6.387-1.461 12.871-.781 19.305.293 2.371.715 4.773 1.68 6.973 1.496-.18 2.98-.469 4.48-.664 1.828-.301 3.676-.48 5.5-.781.684-.551 1.121-1.352 1.699-2.008 2.566-3.293 5.113-6.625 7.266-10.215-.762-1.523-1.578-3.016-2.352-4.535l-2.621-5.227c-.766-1.594-1.594-3.176-2.117-4.871-.602-2.813-1.031-5.66-1.609-8.477-.648-3.23-1.262-6.512-2.625-9.527-1.359-3.109-2.555-6.309-3.184-9.656-.734.707-1.383 1.504-2.062 2.266-.633.688-1.105 1.512-1.773 2.168.914-2.223 2.246-4.238 3.527-6.25-.168-2.602-.27-5.234.098-7.824.367-3.207 1.152-6.344 1.937-9.465.629-2.59 1.406-5.223 1.18-7.918-.023-.492-.223-.977-.602-1.297-.934-.781-2.07-1.266-3.219-1.629-1.426-.488-2.906-.789-4.383-1.078-3.879-.68-7.801-1.047-11.723-1.395-.164 0-.355-.059-.504.039-.996.656-1.883 1.473-2.871 2.141-.371-.121-.754-.23-1.07-.465.629-.617 1.34-1.152 1.957-1.785l.156-.016c-.555-.297-1.203-.23-1.805-.277-.648-.152-1.305-.328-1.883-.676-.941-.516-1.512-1.496-1.84-2.492-.105.422-.16.855-.191 1.293m42.141 23.242c-.641.25-1.297.473-1.891.824-4.73 2.063-9.098 4.969-12.941 8.426-.352.25-.164.703-.133 1.055.551 3.59 1.914 6.969 3.34 10.281 1.156 2.625 1.73 5.449 2.324 8.246.602 2.953 1.102 5.934 1.66 8.898.223 1.289.855 2.441 1.391 3.617 1.301 2.879 2.828 5.648 4.227 8.48.625-.852 1.043-1.84 1.59-2.742 1.949-3.586 3.949-7.152 5.691-10.848.957-1.918 2.391-3.551 4.031-4.898 1.309-1.074 2.746-1.98 4.059-3.047 1.914-1.445 4.039-2.57 6.121-3.738.141-.105.43-.207.328-.438-.277-1.09-.488-2.238-.223-3.355.016-.219.187-.352.359-.457l7.781-4.867c2.543-1.621 5.062-3.289 7.512-5.051 1.375-1.027 2.848-2.016 3.809-3.484 1.16-1.723 1.977-3.656 2.793-5.563-2.059-.855-4.195-1.52-6.328-2.156-4.816-1.391-9.777-2.328-14.789-2.516-7.027-.375-14.152.723-20.711 3.332m44.988 24.801c-.477-.02-.715.434-.973.758-.395-.266-.797-.664-1.312-.547-4.965.496-9.945.941-14.867 1.785-1.715.344-3.547.68-5.238.051-.406-.117-.824-.488-1.246-.219-1.875.828-3.727 1.707-5.512 2.723-.797.465-1.48 1.102-2.23 1.641-1.734 1.258-3.551 2.465-4.914 4.148-.324.398-.516.883-.746 1.34-.859 1.719-1.578 3.504-2.352 5.266-.328.676-.379 1.438-.492 2.172-.43 2.789-.848 5.59-1.496 8.336-1.473 5.707-3.25 11.363-4.031 17.223-.187 1.293-.191 2.598-.285 3.895-.137.602-.039 1.211.047 1.813-.293-.535-.195-1.164-.207-1.75l-.203.07c-.141 1.445-.363 2.883-.422 4.34l-.062-.125c-.082 1.387-.406 2.746-.504 4.129.008 1.684-.062 3.371.078 5.051 0 2.23.168 4.457.281 6.684.09.656.012 1.348.246 1.977-.066.801.145 1.59.16 2.387.023.945.133 1.891.117 2.836l.523 9.426c.328 3.941.695 7.902 1.57 11.766.586 2.832 2.043 5.363 3.523 7.805 1.859 3 3.937 5.855 6.121 8.621 3.887 4.93 8.105 9.582 12.547 14.004 4.281 4.113 8.703 8.152 13.742 11.316 3.109 1.98 6.59 3.27 10.125 4.238 6.707 1.813 13.66 2.59 20.59 2.773 3.078.109 6.16-.063 9.234-.297 3.281-.344 6.609-.777 9.691-2.031 1.914-.828 3.707-1.922 5.395-3.152 6.152-4.563 11.242-10.391 16.004-16.371.602-.547 1.039-1.238 1.422-1.953.668-.699 1.172-1.539 1.773-2.297a145.11 145.11 0 0 0 4.176-6.027c.473-.797 1.102-1.512 1.477-2.355.437-.516.766-1.117 1.129-1.684.812-1.355 1.715-2.668 2.352-4.121 1.199-2.684 2.156-5.48 2.84-8.34.227-.27.223-.656.328-.98.477-2.109 1.129-4.176 1.516-6.301.187-1.207.461-2.406.605-3.617.668-3.152 1.133-6.352 1.625-9.539.605-4.094 1.137-8.203 1.621-12.316.289-2.008.203-4.055.648-6.043.402-3.461.707-6.93 1.023-10.395.113-1.762.391-3.516.391-5.281.172-.949.348-1.934.211-2.891l-.242-.008c.062-2.266.262-4.531.543-6.781.137-1.32.457-2.617.531-3.941-.207.469-.289.996-.598 1.414-.039-.426-.043-.855-.062-1.281L244.507 129c-.137-1.246.035-2.5-.125-3.738-.074-.695.008-1.395-.012-2.09-2.535-2.117-5.773-3.004-8.699-4.402-1.695-.73-3.184-1.875-4.922-2.508-4.723-1.805-9.766-2.426-14.703-3.336-4.531-.746-9.082-1.395-13.637-1.977-1.379-.227-2.77-.363-4.156-.551-1.473-.16-2.941-.434-4.422-.477-1.648-.309-3.332-.391-4.992-.582-2.254-.199-4.512-.422-6.773-.324-7.777.344-15.543.965-23.293 1.656m-55.629 43.344c-3.965.496-7.914 1.066-11.852 1.734-2.352.387-4.539 1.473-6.473 2.852-1.902 1.25-3.332 3.301-3.648 5.594-.289 1.637.078 3.305.621 4.848.816 2.172 2.047 4.207 3.711 5.824 2.348 2.477 5.184 4.402 7.687 6.707 2.246 2 4.293 4.336 5.496 7.137 1.293 2.738 2.199 5.695 3.992 8.164.844 1.207 2.109 2.207 3.59 2.406 1.527.27 3.07-.285 4.348-1.105.168-.125.449-.242.379-.504-.312-4.074-.59-8.156-.645-12.238-.41.992-.676 2.086-1.422 2.898-1.895 1.891-5.227 2.07-7.242.273-1.219-1.031-1.734-2.617-2.059-4.129-.547-2.289-.496-4.707-1.344-6.922-.406-1.109-1.129-2.074-2-2.855-1.375-1.223-2.914-2.238-4.289-3.457-1.031-.988-2.113-1.992-2.691-3.336-.672-1.352-.676-2.988-.09-4.367.895-2.16 2.785-3.785 4.902-4.66 2.699-1.145 5.703-1.32 8.59-1.063 1.855.156 3.672.605 5.437 1.18-.023.039-.074.113-.098.152-1.367-.375-2.801-.477-4.215-.449-2.133-.055-4.262.277-6.309.875-1.852.57-3.664 1.453-5.031 2.867-.824.859-1.539 1.941-1.617 3.172.023 1.094.66 2.066 1.363 2.859 1.574-1.074 3.23-2.027 4.969-2.809 2.199-.926 4.52-1.613 6.906-1.777 1.988-.211 3.988.094 5.914.59.125-2.117.09-4.238.07-6.359-.34-1.488-.984-2.996-2.125-4.039-1.176-.371-2.445-.363-3.664-.5-.461-.109-.723.43-1.164.438m9.789 3.602c-.07.531-.133 1.066-.152 1.605l.215-.082c.125-.508.035-1.023-.062-1.523m133.547 5.438c-.258.477.531.031 0 0m-144.008 2.949c-3.203.512-6.387 1.684-8.91 3.785 1.453 1.199 3.008 2.273 4.414 3.531 1.539 1.473 2.512 3.484 2.879 5.586.562 2.711.477 5.676 1.98 8.094.527.84 1.43 1.492 2.445 1.441 1.207-.109 2.25-.816 3.117-1.621.691-.668 1.363-1.379 1.836-2.223.117-.793-.004-1.598-.039-2.395-.027-1.082.051-2.172-.066-3.25-.07-2.168.07-4.344-.094-6.512l-.004-6.422c-.824-.176-1.664-.227-2.504-.258-.883-.07-1.789-.145-2.664.047-.801-.055-1.598.094-2.391.195m143.379-.238c-1.062 10.18-2.258 20.355-4.047 30.434 1.254-2.871 2.23-5.859 3.145-8.855 1.113-3.785 2.051-7.637 2.543-11.563.254-2.285.48-4.633-.066-6.895-.16-1.176-.535-2.438-1.574-3.121m-126.222 56.473c-.109 1.68.098 3.355.055 5.031-.016.922.133 1.84.09 2.766-.051 1.141.121 2.273.074 3.414-.035.809.059 1.609.105 2.414 9.301 5.828 18.551 11.758 27.57 18.023 2.57 1.828 5.148 3.652 7.508 5.75 2.68 1.797 5.285 3.715 8.078 5.336l16.25 9.563c1.145-2.336 1.621-4.926 2.641-7.309l2.637-8.324c-3.152.035-6.297-.113-9.437-.336-6.949-.609-13.93-1.75-20.453-4.324-3.066-1.195-5.875-2.953-8.535-4.891-4.984-3.668-9.516-7.934-13.824-12.383a143.76 143.76 0 0 1-12.125-14.27c-.16-.219-.41-.328-.633-.461m-3.047 14.813c.121 1.445.609 2.82.937 4.223.184.965.902 1.676 1.383 2.492 3.52 5.285 7.523 10.238 11.836 14.879 1.066 1.035 1.988 2.215 3.121 3.184 4.316 4.27 9.016 8.152 14.082 11.48.57.352 1.09.813 1.734 1.023 1.855 1.281 3.895 2.266 5.898 3.285 2.977 1.438 6.066 2.652 9.246 3.551.648.219 1.352.285 1.977.59-2.566-.313-5.02-1.223-7.449-2.07-6.531-2.48-12.645-6.012-18.266-10.172-.992-.668-1.859-1.512-2.883-2.129-.207-.387-.617-.582-.937-.852-5.738-4.688-10.926-10.031-15.641-15.762-1.66-1.973-3.176-4.059-4.758-6.094-1.191.754-2.406 1.477-3.621 2.199-.883.59-1.848 1.09-2.586 1.867.223.934.43 1.875.738 2.785.086.371.465.512.758.688 1.684.902 3.273 1.977 4.859 3.047 1.059.707 1.766 1.801 2.641 2.707 1.176 1.254 2.234 2.621 3.484 3.801 4.492 3.633 8.969 7.289 13.238 11.191 5.023 4.402 10.363 8.426 15.687 12.449.828.555 1.555 1.277 2.437 1.742a7.47 7.47 0 0 0 .902.742c3.887 2.809 7.727 5.699 11.797 8.238 1.457 1.008 2.844 2.117 4.215 3.234.539.445 1.227.617 1.859.875 2.766 1.063 5.523 2.156 8.203 3.438 1.387.672 2.699 1.57 3.625 2.84.336.313.582 1.012 1.145.828.645-.098 1.434-.426 1.508-1.176.07-1.68-.004-3.359.023-5.039-.008-.457.281-.832.484-1.211l6.66-12.473c.598-1.047.922-2.227 1.059-3.418.035-.363-.262-.602-.488-.82-.023.27-.027.551-.031.832-1.051.359-2.176.148-3.258.109-.832-.02-1.5-.566-2.199-.941l-11.523-6.539-3.043-1.699-15.898-9.477-26.375-18.09c-4.937-3.391-9.988-6.613-15.016-9.867-.465-.313-1-.527-1.566-.492m18.93 38.32c.621.898 1.441 1.637 2.16 2.457l7.273 7.621c1.687 1.707 3.355 3.445 5.195 4.992 1.129.941 2.473 1.559 3.785 2.188 3.066 1.379 6.176 2.688 9.355 3.781-.492-.457-1.074-.797-1.613-1.184-8.02-5.652-15.895-11.527-23.508-17.73-.902-.684-1.691-1.523-2.648-2.125zm0 0" class="B C"/><path d="M154.351 18.238c3.324.215 6.598.906 9.84 1.648 4.215 1.074 8.387 2.297 12.539 3.598 1.562.547 3.187.969 4.641 1.793l18.105 10.336c.797.477 1.621.91 2.395 1.426-2.539.91-4.848 2.379-6.836 4.199-3.215 2.762-6.387 5.582-9.402 8.563-.363.34-.656.785-1.113 1a248.34 248.34 0 0 0-1.719-7.594c-.344-1.617-1.336-2.969-2.137-4.371-2.25-3.609-4.719-7.094-7.586-10.227-1.004-1.156-2.133-2.191-3.297-3.18-1.949-1.633-4.238-2.773-6.539-3.809-2.895-1.309-5.891-2.363-8.891-3.383zm0 0" fill="rgb(87.843137%,89.019608%,12.54902%)" stroke="rgb(87.843137%,89.019608%,12.54902%)"/><path d="M145.203 20.004c.406-.191.84-.539 1.312-.344 5.535 1.68 11.078 3.34 16.531 5.277 1.012.367 2.035.773 2.852 1.5 3.191 2.664 6.102 5.652 8.937 8.695.773.898 1.656 1.715 2.262 2.746.848 1.563 1.453 3.246 2.062 4.914 1.145 3.258 2.137 6.57 3.09 9.887.055.27.203.605-.039.824-.73.906-1.469 1.813-2.023 2.84-1.305 2.52-3.145 4.699-4.996 6.82-2.398 2.723-4.957 5.313-7.727 7.652-1.496 1.27-3.215 2.25-4.672 3.57a17.29 17.29 0 0 0-4.223 5.328c-.848 1.707-1.449 3.523-2.125 5.301-5.328-1.852-10.824-3.191-16.402-3.984-3.211-.473-6.457-.672-9.695-.828 1.156-.348 2.469-.477 3.402-1.332.832-.797.762-2.082.555-3.129-.625-2.66-2.129-5.047-4.02-6.98-3.582-3.648-8.246-5.977-12.992-7.668-5.832-2.016-11.98-3.059-18.137-3.215-2.898-.145-5.801.172-8.687.414.465-.352 1.02-.535 1.551-.762 5.457-2.305 11.352-3.695 17.289-3.586 6.359-.055 12.656 1.656 18.348 4.457 4.832 2.402 9.266 5.574 13.25 9.223 3.488 3.211 6.691 6.742 9.496 10.578.484.621.883 1.313 1.437 1.879-.289-.719-.789-1.313-1.195-1.957-2.777-4.309-5.926-8.379-9.453-12.082-3.27-3.371-6.898-6.406-10.922-8.813-4.234-2.535-8.91-4.344-13.773-5.125-.32-.047-.641-.102-.934-.23 2.59-.133 5.176.188 7.75.477 6.094.828 12.09 2.563 17.609 5.324 4.59 2.266 8.84 5.25 12.539 8.82.809.754 1.508 1.625 2.355 2.344.051-2.285-.016-4.574.023-6.859.125-2.109.148-4.227.023-6.332-.082-4.383-.484-8.816-1.844-13-.824-2.293-1.867-4.551-3.453-6.418-1.957-2.555-4.895-4.246-8.004-4.922-4.379-.965-8.977-.328-13.141 1.25.117-.305.305-.566.531-.793 4.371-4.762 9.598-8.695 15.25-11.762zm0 0" class="W X"/><path d="M232.886 30.871c2.523-.359 5.074-.504 7.621-.449 4.586-.082 9.168.324 13.707.961 3.277.508 6.566 1.094 9.691 2.227.953.328 1.836.816 2.691 1.352 2.641 1.641 5.207 3.398 7.785 5.141.461.344.984.613 1.379 1.043.809 1.176 1.879 2.125 2.793 3.211 3.184 3.297 6.402 6.586 9.105 10.313 1.355 1.824 2.453 3.816 3.668 5.734l5.551 8.887c.559.93 1.207 1.809 1.637 2.809-.824-.656-1.5-1.469-2.262-2.191-2.477-2.332-5.254-4.313-8.148-6.074-1.199-.676-2.371-1.426-3.68-1.871-.723-.352-1.293-.941-1.945-1.398-4.723-3.637-9.754-6.887-15.145-9.414-10.004-4.711-20.973-7.18-31.977-7.703-4.297-.156-8.621-.16-12.895.402-6.156.781-12.156 2.813-17.539 5.934-5.312 3.074-10.023 7.188-13.891 11.98-3.941 4.836-7.645 9.867-11.344 14.891L157.07 108.5c-1.754.246-3.523.344-5.281.547-3.789.434-7.594.793-11.344 1.52-1.277.254-2.73.445-3.883-.301-.805-.523-1.02-1.531-1.086-2.426 4.918-3.102 9.879-6.148 14.617-9.531 1.234-.898 2.488-1.793 3.57-2.887 1.363-1.531 2.305-3.395 3.16-5.25 1.07-2.359 1.902-4.816 2.832-7.23.805-2.066 1.828-4.102 3.437-5.648 1.262-1.352 2.766-2.438 4.27-3.492 2.348-1.773 4.512-3.781 6.559-5.902 2.348-2.352 4.543-4.875 6.5-7.574.738-1.023 1.352-2.129 1.969-3.23 1.074-1.684 2.469-3.133 3.82-4.594.859-.977 1.852-1.813 2.762-2.738 2.492-2.371 5.07-4.645 7.68-6.875.883-.75 1.758-1.52 2.754-2.113 2.687-1.68 5.809-2.457 8.906-2.914 1.367-.238 2.777-.273 4.113-.695 3.215-.965 6.293-2.34 9.469-3.43 3.574-1.27 7.242-2.293 10.992-2.863zm0 0" class="L M"/><path d="M129.422 32.559c4.164-1.578 8.762-2.215 13.141-1.25 3.109.676 6.047 2.367 8.004 4.922 1.586 1.867 2.629 4.125 3.453 6.418 1.359 4.184 1.762 8.617 1.844 13 .125 2.105.102 4.223-.023 6.332l-.023 6.859c-.848-.719-1.547-1.59-2.355-2.344-3.699-3.57-7.949-6.555-12.539-8.82-5.52-2.762-11.516-4.496-17.609-5.324-2.574-.289-5.16-.609-7.75-.477-2.215-.117-4.437-.449-6.66-.254-7.137.238-14.102 2.453-20.414 5.75-1.461.711-2.828 1.598-4.266 2.348-2.141.57-4.129 1.578-6.023 2.707-1.027-.051-2.086-.09-3.07-.422-1.082-.43-1.285-1.754-1.297-2.785.102-2.207.734-4.379 1.648-6.375 1.484-1.895 3.176-3.617 4.793-5.398 1.934-1.949 3.82-3.961 5.934-5.715.672-.516 1.469-.805 2.242-1.121 2.898-1.113 5.926-1.824 8.937-2.535 7.895-1.77 15.879-3.094 23.871-4.32 1.793-.238 3.574-.594 5.379-.746-.184.492-.504.914-.797 1.34 1.184-.527 2.289-1.219 3.477-1.746zm0 0" class="R S"/><path d="M126.672 32.918l2.645-.316-3.477 1.746c.293-.426.613-.848.797-1.34zm0 0" class="Y Z"/><path d="M275.761 41.145c1.094.594 2.07 1.383 3.102 2.082a504.47 504.47 0 0 1 14.793 10.762l7.609 6.137c1.961 1.676 3.402 3.855 4.957 5.895 2.012 2.699 3.871 5.512 5.852 8.23.984 1.395 2.527 2.223 4.047 2.887 3.602 1.555 7.602 2.691 10.375 5.648 1.937 2.125 3.617 4.516 4.863 7.125 2.105 4.344 3.059 9.152 3.594 13.93.109 1.227.289 2.453.277 3.688-.129 3.492-1.289 6.848-2.727 9.992-2.531 5.402-5.973 10.316-9.719 14.918-2.016 2.398-4.051 4.801-6.406 6.867-.508.398-.836.984-1.32 1.398-2.824 1.02-5.711 1.902-8.691 2.305.672-.93 1.543-1.691 2.273-2.574 2.078-2.309 4.129-4.656 5.898-7.223 3.094-4.449 5.789-9.219 7.699-14.316.559-1.559 1.082-3.176 1.082-4.855.031-3.402-.699-6.754-1.586-10.02-.988-3.566-2.273-7.055-3.891-10.379-1.289-2.645-2.77-5.227-4.699-7.449-1.621-1.898-3.695-3.379-5.973-4.371-1.352-.617-2.75-1.152-3.988-1.996-2.387-1.559-4.039-3.949-6.031-5.945-1.051-1-1.934-2.16-3.043-3.098-2.293-2.301-4.695-4.488-7.152-6.598-.824-.77-1.801-1.363-2.531-2.223 1.309.445 2.48 1.195 3.68 1.871 2.895 1.762 5.672 3.742 8.148 6.074.762.723 1.437 1.535 2.262 2.191-.43-1-1.078-1.879-1.637-2.809l-5.551-8.887c-1.215-1.918-2.312-3.91-3.668-5.734-2.703-3.727-5.922-7.016-9.105-10.313-.914-1.086-1.984-2.035-2.793-3.211zm0 0" class="N O"/><path d="M206.711 51.418c6-3.363 12.777-5.25 19.617-5.652 7.687-.422 15.437.164 22.973 1.773 8.359 1.785 16.484 4.844 23.797 9.328.648.426 1.352.773 1.93 1.305-1.816-.074-3.59-.691-5.426-.566.84.859 1.871 1.492 2.805 2.238 4.891 3.746 9.836 7.465 14.258 11.785 3.875 3.793 7.277 8.168 9.508 13.16 2.793 6.16 3.715 13.078 3.219 19.805-.285 3.109-1.129 6.184-2.559 8.961-1.148 2.098-2.66 4.016-4.555 5.473-2.59 2.074-5.742 3.332-8.969 3.961-5.672 1.133-11.555.449-17.086-1.102-6.418-1.852-12.496-4.699-18.477-7.66-5.48-2.637-10.914-5.43-16.664-7.43-6.559-2.273-13.305-3.973-20.129-5.191-3.719-.617-7.449-1.215-11.211-1.484-3.625-.352-7.266-.309-10.902-.277-5.922.188-11.926 1.129-17.336 3.668-1.004.484-2.109.766-3.027 1.418 2.328.172 4.664-.031 6.992-.004 1.879-.102 3.758.02 5.633-.141 4.414-.082 8.832.051 13.234.355-1.859 1.023-3.984 1.375-6.039 1.781-1.859.031-3.715-.289-5.582-.203-7.547.254-15.07.941-22.602 1.512 1.758-2.738 3.711-5.336 5.543-8.016l21.812-30.176 5.191-6.625c3.875-4.848 8.648-8.98 14.051-11.996zm0 0" class="L M"/><path d="M269.601 57.606c1.836-.125 3.609.492 5.426.566.437.051.754.434 1.125.648 8.508 5.793 16.113 12.863 22.934 20.59 1.199 1.203 2.547 2.262 4.043 3.066 2.031 1.105 4.297 1.789 6.148 3.223 2.281 1.738 3.906 4.184 5.336 6.652 2.781 5.152 4.754 10.746 5.918 16.496.414 2.449.891 5.023.148 7.457-.836 2.902-2.152 5.641-3.555 8.301-2.488 4.625-5.406 9.043-8.965 12.898-1.859 2.082-3.676 4.207-5.742 6.074-2.004-.215-4.012.238-6.02.031-3.473-.129-6.965-.285-10.391-.902 2.426-.063 4.871-.105 7.262-.582.676-.145 1.391-.207 2-.559-5.723.723-11.543.008-17.094-1.484-5.809-1.586-11.367-4.02-16.621-6.965-4.539-2.547-8.875-5.465-12.992-8.664-.73-.531-1.023-1.441-1.672-2.055-1.578-1.781-3.738-2.855-5.855-3.824-1.785-.805-3.633-1.469-5.367-2.387-1.039-.508-1.996-1.172-3.055-1.629-3.207-1.441-6.668-2.172-10.102-2.824l-9.898-1.676c-8.004-1.18-16.023-2.285-24.078-3.043l-.238-.094c2.055-.406 4.18-.758 6.039-1.781-4.402-.305-8.82-.438-13.234-.355-1.875.16-3.754.039-5.633.141-2.328-.027-4.664.176-6.992.004.918-.652 2.023-.934 3.027-1.418 5.41-2.539 11.414-3.48 17.336-3.668 3.637-.031 7.277-.074 10.902.277 3.762.27 7.492.867 11.211 1.484 6.824 1.219 13.57 2.918 20.129 5.191 5.75 2 11.184 4.793 16.664 7.43 5.98 2.961 12.059 5.809 18.477 7.66 5.531 1.551 11.414 2.234 17.086 1.102 3.227-.629 6.379-1.887 8.969-3.961 1.895-1.457 3.406-3.375 4.555-5.473 1.43-2.777 2.273-5.852 2.559-8.961.496-6.727-.426-13.645-3.219-19.805-2.23-4.992-5.633-9.367-9.508-13.16-4.422-4.32-9.367-8.039-14.258-11.785-.934-.746-1.965-1.379-2.805-2.238zm0 0" class="N O"/><path d="M90.469 58.293l8.687-.414c6.156.156 12.305 1.199 18.137 3.215 4.746 1.691 9.41 4.02 12.992 7.668 1.891 1.934 3.395 4.32 4.02 6.98.207 1.047.277 2.332-.555 3.129-.934.855-2.246.984-3.402 1.332l-.437.059c-6.98.008-14.082 1.129-20.426 4.184-3.187 1.527-6.137 3.563-8.711 6.004-.824.688-1.445 1.574-2.234 2.293-.148-2.941.258-5.879.848-8.758.766-3.762 2.023-7.426 2.461-11.254.07-1.344.199-2.758-.289-4.039-.539-1.359-1.832-2.172-3.082-2.77-2.117-.957-4.398-1.48-6.672-1.902-3.152-.578-6.348-.887-9.531-1.238 2.227-1.488 4.562-2.816 6.969-3.996.398-.188.793-.402 1.227-.492zm0 0" class="R S"/><path d="M78.199 62.426c1.895-1.129 3.883-2.137 6.023-2.707-.695.637-1.543 1.055-2.297 1.609l-1.812 1.254c-.641.051-1.277-.109-1.914-.156zm0 0" class="Y Z"/><path d="M71.644 62.629c.031-.438.086-.871.191-1.293.328.996.898 1.977 1.84 2.492.578.348 1.234.523 1.883.676-.777 1.039-1.762 1.953-2.215 3.203 1.148-.813 2.098-1.867 3.215-2.719.18-.156.426-.164.648-.191-.617.633-1.328 1.168-1.957 1.785.316.234.699.344 1.07.465l2.871-2.141c.148-.098.34-.039.504-.039 3.922.348 7.844.715 11.723 1.395 1.477.289 2.957.59 4.383 1.078 1.148.363 2.285.848 3.219 1.629.379.32.578.805.602 1.297.227 2.695-.551 5.328-1.18 7.918-.785 3.121-1.57 6.258-1.937 9.465-.367 2.59-.266 5.223-.098 7.824-1.281 2.012-2.613 4.027-3.527 6.25.668-.656 1.141-1.48 1.773-2.168.68-.762 1.328-1.559 2.062-2.266.629 3.348 1.824 6.547 3.184 9.656 1.363 3.016 1.977 6.297 2.625 9.527l1.609 8.477c.523 1.695 1.352 3.277 2.117 4.871l2.621 5.227c-.93 1.039-2.07 1.855-3.207 2.641-1.457.906-3.113 1.742-4.879 1.535-1.754-.129-3.445-.984-4.543-2.383-1.43-1.809-2.059-4.109-2.406-6.359-.598-4.227-.258-8.512.312-12.723a78.21 78.21 0 0 1 1.336-7.094c.219-.887.492-1.758.617-2.66-.215.395-.41.801-.555 1.23-.598 1.805-1.207 3.609-1.699 5.453-.082.227-.102.559-.398.602.715-3.539 1.617-7.035 2.484-10.539-.262.43-.406.91-.57 1.383-2.41 6.703-4.363 13.59-5.523 20.629-.195.945-.246 1.918-.5 2.852-1.437 4.125-2.934 8.273-5.234 12-.914 1.461-2.008 2.844-3.391 3.883-1.195.867-2.812 1.281-4.219.711-2.383-.918-4.008-3.039-5.402-5.094-3.332-5.051-4.609-11.164-5.059-17.133-.168-4.07-.176-8.164.297-12.215.133-1.422.34-2.832.5-4.25.555-2.875 1.395-5.684 2.18-8.5.492-1.785.758-3.617 1.062-5.438.176-1.746.281-3.5.437-5.242.285-2.055.164-4.137.289-6.199.152-6.508.316-13.016.844-19.508m5.371 16.172c-1.254 1.824-2.309 3.773-3.305 5.75-.797 1.777-1.695 3.531-2.234 5.414.41-.605.609-1.32.957-1.957 1.125-2.207 2.262-4.406 3.484-6.559.891-1.625 1.918-3.176 2.793-4.809-.672.625-1.164 1.418-1.695 2.16zm0 0" fill="rgb(83.137255%,29.803922%,15.294118%)" stroke="rgb(83.137255%,29.803922%,15.294118%)"/><path d="M75.558 64.504c.602.047 1.25-.02 1.805.277l-.156.016c-.223.027-.469.035-.648.191-1.117.852-2.066 1.906-3.215 2.719.453-1.25 1.437-2.164 2.215-3.203zm1.457 14.297c.531-.742 1.023-1.535 1.695-2.16l-2.793 4.809-3.484 6.559c-.348.637-.547 1.352-.957 1.957.539-1.883 1.437-3.637 2.234-5.414.996-1.977 2.051-3.926 3.305-5.75zm0 0" fill="rgb(55.294118%,25.490196%,16.078431%)" stroke="rgb(55.294118%,25.490196%,16.078431%)"/><path d="M113.785 85.871c6.559-2.609 13.684-3.707 20.711-3.332 5.012.188 9.973 1.125 14.789 2.516 2.133.637 4.27 1.301 6.328 2.156-.816 1.906-1.633 3.84-2.793 5.563-.961 1.469-2.434 2.457-3.809 3.484-2.449 1.762-4.969 3.43-7.512 5.051.469-1.656.637-3.453.141-5.125-.547-1.918-1.984-3.43-3.582-4.527-2.367-1.543-5.094-2.422-7.848-2.934-6.055-1.125-12.328-.867-18.34.422-1.844.391-3.594 1.098-5.332 1.801.918-.949 2.039-1.656 3.09-2.445.832-.641 1.766-1.141 2.586-1.801-.078 0-.242 0-.32-.004.594-.352 1.25-.574 1.891-.824zm0 0" class="W X"/><path d="M98.953 95.121c3.844-3.457 8.211-6.363 12.941-8.426a8.76 8.76 0 0 0 .32.004c-.82.66-1.754 1.16-2.586 1.801-1.051.789-2.172 1.496-3.09 2.445 1.738-.703 3.488-1.41 5.332-1.801 6.012-1.289 12.285-1.547 18.34-.422 2.754.512 5.48 1.391 7.848 2.934 1.598 1.098 3.035 2.609 3.582 4.527.496 1.672.328 3.469-.141 5.125-2.57 1.664-5.168 3.277-7.781 4.867-.172.105-.344.238-.359.457-.266 1.117-.055 2.266.223 3.355.102.23-.187.332-.328.438-2.082 1.168-4.207 2.293-6.121 3.738-1.312 1.066-2.75 1.973-4.059 3.047-1.641 1.348-3.074 2.98-4.031 4.898-1.742 3.695-3.742 7.262-5.691 10.848-.547.902-.965 1.891-1.59 2.742-1.398-2.832-2.926-5.602-4.227-8.48-.535-1.176-1.168-2.328-1.391-3.617l-1.66-8.898c-.594-2.797-1.168-5.621-2.324-8.246-1.426-3.313-2.789-6.691-3.34-10.281-.031-.352-.219-.805.133-1.055zm0 0" class="R S"/><path d="M66.164 110.109c.246-.859.34-1.762.668-2.594l-.5 4.25c-.473 4.051-.465 8.145-.297 12.215.449 5.969 1.727 12.082 5.059 17.133 1.395 2.055 3.02 4.176 5.402 5.094 1.406.57 3.023.156 4.219-.711 1.383-1.039 2.477-2.422 3.391-3.883 2.301-3.727 3.797-7.875 5.234-12-.086 1.754-.371 3.492-.469 5.246-.398 6.254-.219 12.656 1.551 18.711-3.863.859-7.348 3.043-10.133 5.852-4.535-1.547-8.355-4.906-10.832-9.012-3.016-4.953-4.383-10.738-4.957-16.473-.258-2.34-.289-4.695-.34-7.043l.168-6.43c.336-3.496 1.094-6.93 1.836-10.355zm29.383-.875c.145-.43.34-.836.555-1.23-.125.902-.398 1.773-.617 2.66l-1.336 7.094c-.57 4.211-.91 8.496-.312 12.723.348 2.25.977 4.551 2.406 6.359 1.098 1.398 2.789 2.254 4.543 2.383 1.766.207 3.422-.629 4.879-1.535 1.137-.785 2.277-1.602 3.207-2.641l2.352 4.535c-2.152 3.59-4.699 6.922-7.266 10.215-.578.656-1.016 1.457-1.699 2.008-1.824.301-3.672.48-5.5.781-1.5.195-2.984.484-4.48.664-.965-2.199-1.387-4.602-1.68-6.973-.68-6.434-.062-12.918.781-19.305.574-3.914 1.227-7.82 2.07-11.684.297-.043.316-.375.398-.602.492-1.844 1.102-3.648 1.699-5.453zm0 0" fill="rgb(54.901961%,25.490196%,16.078431%)" stroke="rgb(54.901961%,25.490196%,16.078431%)"/><path d="M158.773 110.672c7.75-.691 15.516-1.313 23.293-1.656 2.262-.098 4.52.125 6.773.324 1.66.191 3.344.273 4.992.582-.676 3.176-1 6.41-1.5 9.617l-.105.633c-.594.277-1.141.648-1.668 1.039-.445-.898-.672-1.914-1.324-2.695-1.332-1.707-3.344-2.695-5.332-3.402-3.078-1.059-6.328-1.449-9.555-1.691-2.469-.086-4.941-.039-7.41-.027-7.297.387-14.566 1.48-21.637 3.348-1.785.484-3.566 1.008-5.309 1.637-2.246.852-4.527 1.742-6.449 3.234-1.273 1.043-2.355 2.301-3.344 3.617-2.602 3.508-4.422 7.527-5.855 11.648-2.078 6.008-3.414 12.25-4.559 18.496l-3.687 20.355c-.723 3.461-1.582 6.902-2.742 10.242a16.57 16.57 0 0 1-.324.711c-.105-.004-.316-.023-.422-.031.016-.945-.094-1.891-.117-2.836-.016-.797-.227-1.586-.16-2.387.176-1.199.027-2.41.031-3.617-.008-1.789.035-3.582-.047-5.371l-.023-8.727c.059-1.457.281-2.895.422-4.34l.203-.07c.012.586-.086 1.215.207 1.75-.086-.602-.184-1.211-.047-1.813.094-1.297.098-2.602.285-3.895.781-5.859 2.559-11.516 4.031-17.223.648-2.746 1.066-5.547 1.496-8.336.113-.734.164-1.496.492-2.172.773-1.762 1.492-3.547 2.352-5.266.23-.457.422-.941.746-1.34 1.363-1.684 3.18-2.891 4.914-4.148.75-.539 1.434-1.176 2.23-1.641 1.785-1.016 3.637-1.895 5.512-2.723.422-.27.84.102 1.246.219 1.691.629 3.523.293 5.238-.051 4.922-.844 9.902-1.289 14.867-1.785.516-.117.918.281 1.312.547.258-.324.496-.777.973-.758zm0 0" class="F G"/><path d="M193.832 109.922c1.48.043 2.949.316 4.422.477l4.156.551-.699 4.836c-1.793.273-3.469.996-5.133 1.691-1.484.625-2.781 1.59-4.184 2.371l-.062-.309 1.5-9.617zm0 0" fill="rgb(78.431373%,35.686275%,28.235294%)" stroke="rgb(78.431373%,35.686275%,28.235294%)"/><path d="M202.41 110.949c4.555.582 9.105 1.23 13.637 1.977 4.937.91 9.98 1.531 14.703 3.336 1.738.633 3.227 1.777 4.922 2.508 2.926 1.398 6.164 2.285 8.699 4.402.02.695-.062 1.395.012 2.09.16 1.238-.012 2.492.125 3.738.094 3.672.352 7.344.477 11.012-.312 1.418-.281 2.871-.406 4.309-1.098 15.762-2.492 31.52-4.895 47.137-.086.633-.25 1.246-.437 1.855-.324-3.078-1.168-6.141-2.812-8.773-.766-1.207-1.684-2.328-2.809-3.207.137-.227.27-.473.273-.746.109-2.18.289-4.359.645-6.516.266-1.613.75-3.18 1.078-4.781.469-1.902.867-3.816 1.238-5.738l.777-.078 1.184.129c.949-1.02 1.785-2.145 2.52-3.332.699-1.199 1.336-2.5 1.395-3.914l.254-6.035c.023-1.227-.043-2.457.043-3.68.371-2 .285-4.051.285-6.078-.148-3.008-.535-6.117-1.984-8.797-.855-1.645-2.383-2.777-3.949-3.672-2.906-1.605-6.191-2.324-9.449-2.73-.551-.906-1.395-1.574-2.117-2.336-4.699-4.367-10.77-7.355-17.176-7.832-2.32-.062-4.684-.09-6.93.59.277-1.605.531-3.215.699-4.836zm0 0" class="F G"/><path d="M166.937 113.395l7.41.027c3.227.242 6.477.633 9.555 1.691 1.988.707 4 1.695 5.332 3.402.652.781.879 1.797 1.324 2.695.527-.391 1.074-.762 1.668-1.039l-2.754 22.188-1.109 11.199c-.051.848-.074 1.715.215 2.527l1.062 3.063c-3.055 1.387-5.543 3.766-7.687 6.316-1.242.492-2.129 1.547-3.066 2.461-1.762 1.711-2.902 3.977-3.531 6.34-.672 2.316-.887 4.727-1.004 7.125.074 2.469.336 4.988 1.348 7.266.484 1.02 1.109 1.98 1.902 2.785.945.941 1.84 1.965 2.996 2.656 2.527 1.648 5.496 2.48 8.465 2.824 1.527.137 3.066.309 4.605.223 1.793-.102 3.629-.34 5.246-1.188 1.422-.75 2.777-1.715 3.742-3.035.969-1.34 2.086-2.66 2.562-4.277 1.758-1.785 3.164-3.922 4.031-6.285 1.531-4.055 1.879-8.563.992-12.809-.652-3.023-1.977-5.98-4.203-8.152-2.289-2.383-5.562-3.582-8.809-3.738-.219-1.844-1-3.629-.777-5.512l5.258-36.363c2.246-.68 4.609-.652 6.93-.59 6.406.477 12.477 3.465 17.176 7.832.723.762 1.566 1.43 2.117 2.336-2.984-.277-5.992-.434-8.988-.285-3.801.055-7.629.238-11.352 1.066-1.402.355-2.848.66-4.125 1.375-1.074.605-1.684 1.797-1.895 2.988-.469 2.383.102 4.793.078 7.188l.387-.227c-1.625 4.242-3.266 8.516-4.215 12.977-.285 1.492-.547 3.047-.238 4.559.176.855 1.02 1.266 1.715 1.633 1.777.867 3.668 1.449 5.539 2.063.508.164 1.035.277 1.57.324 1.363.402 2.672.992 4.066 1.289 1.289.582 2.609 1.125 4.012 1.371.766.215 1.559.324 2.352.43a13.74 13.74 0 0 0 2.195.207c.758.043 1.523.078 2.277-.027 1.898.203 3.781-.32 5.672-.289l10.652 1.469c-.262.02-.523.051-.777.078-.371 1.922-.77 3.836-1.238 5.738-.328 1.602-.812 3.168-1.078 4.781-.355 2.156-.535 4.336-.645 6.516-.004.273-.137.52-.273.746-2.258-1.836-5.219-2.598-8.082-2.438-3.047.125-6.297.77-8.637 2.887-2.227 2-3.117 5.23-2.578 8.148.195 1.18.945 2.16 1.895 2.836-2.816 1.48-5.398 3.398-7.73 5.57-.32.25-.316.676-.281 1.043a9.03 9.03 0 0 0-.539.391c-.676.441-1.371.855-2.09 1.223-1.141.488-2.242 1.113-3.199 1.906-.555.383-1.223.512-1.84.754-2.66 1.074-5.574 1.637-8.437 1.285-2.934-.32-5.73-1.414-8.297-2.844-2.727-1.52-5.102-3.594-7.312-5.793-1.871-2.012-3.68-4.109-5.883-5.766-.93-.664-1.793-1.473-2.875-1.879.328-.164.625-.387.937-.582 1.059-.289 2.109-.711 2.895-1.512 2.098-2.027 2.352-5.582.727-7.977-.801-1.273-2.109-2.105-3.445-2.715-3.141-1.375-6.574-1.898-9.973-2.094-3.254-.113-6.527-.035-9.75.496-3.07.473-6.133 1.344-8.797 3.004-3.98 2.371-6.992 6.285-8.422 10.715-2.164 6.438-1.105 13.836 2.637 19.465 2.734 4.121 6.707 7.152 10.496 10.223 3.234 2.598 6.473 5.301 8.945 8.684.902 1.207 1.559 2.574 2.312 3.875.918 3.293 1.445 6.695 2.539 9.941.793 2.5 1.902 4.93 3.547 6.98 1.82 2.293 4.27 4.012 6.902 5.223 3.387 1.555 7.062 2.375 10.742 2.824 3.578.406 7.199.535 10.785.141 3.234-.363 6.48-1.168 9.312-2.836 2.098-1.215 3.898-2.953 5.16-5.043 1.973-3.238 2.879-6.965 4.258-10.473.457-1.117.91-2.246 1.578-3.254 1.062-.609 2.035-1.367 3.113-1.941 2.598-1.516 5.445-2.492 8.121-3.844 1.223-.617 2.406-1.313 3.555-2.063.07.844-.457 1.551-.746 2.297-.637 1.559-1.496 3.02-2.07 4.605-.383.715-.82 1.406-1.422 1.953-4.762 5.98-9.852 11.809-16.004 16.371-1.687 1.23-3.48 2.324-5.395 3.152-3.082 1.254-6.41 1.688-9.691 2.031-3.074.234-6.156.406-9.234.297-6.93-.184-13.883-.961-20.59-2.773-3.535-.969-7.016-2.258-10.125-4.238-5.039-3.164-9.461-7.203-13.742-11.316-4.441-4.422-8.66-9.074-12.547-14.004-2.184-2.766-4.262-5.621-6.121-8.621-1.48-2.441-2.937-4.973-3.523-7.805-.875-3.863-1.242-7.824-1.57-11.766-.238-3.137-.387-6.281-.523-9.426l.422.031a16.57 16.57 0 0 0 .324-.711c1.16-3.34 2.02-6.781 2.742-10.242 1.402-6.754 2.418-13.578 3.687-20.355 1.145-6.246 2.48-12.488 4.559-18.496 1.434-4.121 3.254-8.141 5.855-11.648.988-1.316 2.07-2.574 3.344-3.617 1.922-1.492 4.203-2.383 6.449-3.234 1.742-.629 3.523-1.152 5.309-1.637 7.07-1.867 14.34-2.961 21.637-3.348m-22.969 6.695c-2.246.293-4.316 1.414-6.047 2.855-1.445 1.156-2.562 2.668-3.543 4.227-1.937 3.219-3.055 6.836-4.211 10.391-.496 1.738-1.156 3.422-1.707 5.141a6.79 6.79 0 0 0 .668-.855c-.629 2.605-1.375 5.277-.949 7.98.172.883.684 1.797 1.57 2.105 1.551.531 3.195.746 4.828.816 2.164.043 4.355.023 6.488-.418l5.18 1.633c1.379.383 2.719.945 4.129 1.223.5.297 1.078.426 1.629.605.859.242 1.703.543 2.586.695l-.039-.156c.727.441 1.59.523 2.406.695.531.086 1.059.215 1.598.246a27.91 27.91 0 0 0 7.012.262c1.293-.164 2.605-.344 3.824-.828l-.121.113c.879-.016 1.734-.242 2.605-.355 1.543-.266 3.098-.461 4.633-.766l-.074-.156c.203.352.629.363.98.434 1.488.23 2.984.469 4.496.434.965-.023 2.02.113 2.895-.398.676-.375.676-1.246.832-1.918.695-4.586.992-9.223 1.375-13.844.129-1.336.043-2.711.395-4.016.066.043.195.133.258.176.852-2.57 1.578-5.277 1.297-8.008-.129-1.004-.523-2.117-1.465-2.605-1.094-.566-2.281-.898-3.453-1.238-1.668-.488-3.367-.863-5.066-1.238-7.848-1.656-15.805-2.82-23.809-3.395-3.727-.211-7.488-.387-11.199.164m12.23 44.766c-.832.293-1.078 1.359-.703 2.105l2.488 4.773c.223.406.461.875.941 1.004.52.207 1.137.051 1.523-.348.5-.469.48-1.297.172-1.867l-2.68-5.102c-.32-.633-1.129-.742-1.742-.566m67.793 6.855c-.359.125-.484.512-.605.836-.457 1.234-.816 2.504-1.27 3.738-.16.375-.203.84.07 1.176.301.516 1.02.57 1.5.309.43-.289.5-.836.668-1.285.387-1.242.922-2.445 1.184-3.715.172-.867-.84-1.418-1.547-1.059zm0 0" class="D E"/><path d="M196.578 117.477c1.664-.695 3.34-1.418 5.133-1.691l-5.258 36.363c-.223 1.883.559 3.668.777 5.512a17.51 17.51 0 0 0-7.59 1.488l-1.062-3.063c-.289-.813-.266-1.68-.215-2.527.27-3.742.691-7.469 1.109-11.199l2.754-22.188c.031-.211.07-.422.105-.633l.062.309c1.402-.781 2.699-1.746 4.184-2.371zm0 0" fill="rgb(77.254902%,39.215686%,29.411765%)" stroke="rgb(77.254902%,39.215686%,29.411765%)"/><path d="M143.969 120.09c3.711-.551 7.473-.375 11.199-.164 8.004.574 15.961 1.738 23.809 3.395 1.699.375 3.398.75 5.066 1.238 1.172.34 2.359.672 3.453 1.238.941.488 1.336 1.602 1.465 2.605.281 2.73-.445 5.438-1.297 8.008l-.258-.176c-2.105-1.973-4.484-3.625-6.945-5.105-6.469-3.848-13.738-6.297-21.191-7.199-3.434-.41-6.902-.586-10.355-.328-2.102.141-4.223.375-6.234 1.035-1.617.508-3 1.605-4.051 2.922-1.094 1.313-1.965 2.789-2.969 4.168-2.477 3.168-4.414 6.711-6.531 10.121a6.79 6.79 0 0 1-.668.855c.551-1.719 1.211-3.402 1.707-5.141 1.156-3.555 2.273-7.172 4.211-10.391.98-1.559 2.098-3.07 3.543-4.227 1.73-1.441 3.801-2.563 6.047-2.855zm0 0" class="B C"/><path d="M148.914 123.602c3.453-.258 6.922-.082 10.355.328 7.453.902 14.723 3.352 21.191 7.199 2.461 1.48 4.84 3.133 6.945 5.105-.352 1.305-.266 2.68-.395 4.016-.383 4.621-.68 9.258-1.375 13.844-.156.672-.156 1.543-.832 1.918-.875.512-1.93.375-2.895.398-1.512.035-3.008-.203-4.496-.434-.352-.07-.777-.082-.98-.434-.676-1.074-1.496-2.043-2.281-3.035.094-1.789-1.266-3.184-1.539-4.891 1.57 1.27 2.926 2.781 4.176 4.367-1.281-2.164-3.008-4.039-4.852-5.727-.008-.926-.148-1.98.508-2.734.91-1.105 2.348-1.496 3.617-2.023.332-.113.559-.395.777-.656 1.266.414 2.516.875 3.789 1.254-.02-2.211-.844-4.516-2.492-6.02-1.504-1.031-3.23-1.664-4.891-2.387a169.75 169.75 0 0 0-18.41-6.129c-2.168-.559-4.352-1.113-6.582-1.367-.816-.074-1.68-.195-2.457.156-.816.367-1.523.934-2.227 1.488-2.656 2.121-4.949 4.652-7.355 7.047-.891.996-1.867 1.918-2.68 2.988 1.473-.398 2.891-.969 4.363-1.375 1.797.105 3.574-.293 5.371-.32 1.973-.008 3.965-.121 5.918.227 1.707.285 3.406.785 4.891 1.703.355.254.77.539.887.984-.125.492-.613.773-1.016 1.012-2.191 1.113-4.617 1.801-6.617 3.273-2.078.961-4.23 1.855-6.07 3.242 1.168-.41 2.215-1.113 3.367-1.566-.32.621-.836 1.113-1.168 1.727-.41.734-.621 1.574-.66 2.418-.043.332.16.617.309.902-.895.641-1.766 1.313-2.602 2.027a18.57 18.57 0 0 0 .559.203c-2.133.441-4.324.461-6.488.418-1.633-.07-3.277-.285-4.828-.816-.887-.309-1.398-1.223-1.57-2.105-.426-2.703.32-5.375.949-7.98 2.117-3.41 4.055-6.953 6.531-10.121 1.004-1.379 1.875-2.855 2.969-4.168 1.051-1.316 2.434-2.414 4.051-2.922 2.012-.66 4.133-.895 6.234-1.035zm0 0" class="H I"/><path d="M207.593 126.145c3.723-.828 7.551-1.012 11.352-1.066 2.996-.148 6.004.008 8.988.285 3.258.406 6.543 1.125 9.449 2.73 1.566.895 3.094 2.027 3.949 3.672 1.449 2.68 1.836 5.789 1.984 8.797 0 2.027.086 4.078-.285 6.078.02-1.227-.422-2.391-.902-3.492-.887-2.004-2.051-3.867-3.187-5.734-1.301-2.227-2.988-4.297-5.238-5.598-2.887-1.707-6.328-1.867-9.586-1.93-.832-.082-1.672-.102-2.5-.008-3.879.066-7.781.543-11.484 1.754-2.469.844-4.891 2.059-6.715 3.984-.543.543-1.086 1.125-1.379 1.852-.098.055-.293.172-.387.227.023-2.395-.547-4.805-.078-7.188.211-1.191.82-2.383 1.895-2.988 1.277-.715 2.723-1.02 4.125-1.375zm0 0" class="B C"/><path d="M145.797 126.352c.777-.352 1.641-.23 2.457-.156 2.23.254 4.414.809 6.582 1.367a169.75 169.75 0 0 1 18.41 6.129c1.66.723 3.387 1.355 4.891 2.387 1.648 1.504 2.473 3.809 2.492 6.02l-3.789-1.254-.738-.254.32-.07c-.699-.922-1.785-1.383-2.812-1.813-3.473-1.281-6.973-2.477-10.516-3.535-3.172-.934-6.301-2.121-9.609-2.48-3.465-.313-7.059-.098-10.301 1.277-1.43.621-2.984 1.027-4.246 1.98.082.023.246.078.328.102l-1.367.449c-1.473.406-2.891.977-4.363 1.375.812-1.07 1.789-1.992 2.68-2.988 2.406-2.395 4.699-4.926 7.355-7.047.703-.555 1.41-1.121 2.227-1.488zm0 0" class="a b"/><path d="M250.425 129.469l7.145 4.426a82.44 82.44 0 0 0 9.113 4.438c.465.176.934.348 1.367.602-1.051-.188-2.047-.598-3.09-.816.562.977 1.445 1.695 2.234 2.48 1.766 1.535 3.859 2.648 6.016 3.523 5.879 2.293 12.234 2.914 18.488 3.102 1.141.039 2.285-.051 3.426.043-5.937 1.27-11.777 3.137-17.215 5.879-2.734 1.449-5.465 3.039-7.594 5.336-1.027.957-1.84 2.125-2.41 3.41-.383.895-.863 1.816-.766 2.82-5.422 3.324-10.801 6.723-16.098 10.242-.391.266-.785.523-1.191.754.07-1.039.348-2.055.32-3.098-.062-2.879-.875-5.668-1.469-8.457.285-1.02.742-1.988 1.074-2.996 1.395-3.938 2.625-7.953 3.34-12.078a29.43 29.43 0 0 0 .281-8.859c-.391-3.395-1.391-6.691-2.664-9.844-.121-.301-.219-.605-.309-.906zm0 0" class="N O"/><path d="M221.617 129.879c.828-.094 1.668-.074 2.5.008 3.258.062 6.699.223 9.586 1.93 2.25 1.301 3.937 3.371 5.238 5.598l3.187 5.734c.48 1.102.922 2.266.902 3.492-.086 1.223-.02 2.453-.043 3.68l-.254 6.035c-.059 1.414-.695 2.715-1.395 3.914-.734 1.188-1.57 2.313-2.52 3.332l-1.184-.129-10.652-1.469c-1.891-.031-3.773.492-5.672.289 1.047-.563 2.062-1.258 2.723-2.277 1.359-1.867 1.406-4.457.387-6.496 3.328 1.27 6.285 3.406 8.777 5.953-1.719.844-3.566 1.391-5.285 2.23 2.328-.25 4.633-.66 6.957-.957.844-.141 1.707-.184 2.539-.422-.641-.652-1.234-1.352-1.883-1.992.059-2.469-1.945-4.195-2.914-6.273 1.773.945 3.367 2.184 5.043 3.281-1.703-1.75-3.785-3.082-5.852-4.355-.367-1.066-.758-2.289-.238-3.375.641-1.215 1.824-2.035 3.051-2.57.469-.23 1.004-.391 1.363-.789.078-.273-.047-.559-.074-.832l3.25 1.781c.68.379 1.336.809 2.055 1.113-.523-1.238-1.297-2.344-1.945-3.516-1.195-1.977-2.395-3.949-3.75-5.816-.695-.91-1.352-1.895-2.273-2.59-.969-.563-2.145-.285-3.211-.328-3.953.34-7.844 1.215-11.703 2.121-3.156.781-6.305 1.629-9.359 2.75-.844.344-1.754.656-2.375 1.359-1.176 1.297-1.848 2.98-2.156 4.695l.207.285c2.215-.051 4.418-.398 6.641-.387 1.613.055 3.266.305 4.703 1.086.27.148.484.375.707.586a20.59 20.59 0 0 1-.977 1.207c-2.937.629-5.707 1.977-8.074 3.828-1.211.938-2.383 1.957-3.355 3.145 2.707-2.551 5.973-4.5 9.543-5.52-1.016 1-2.223 1.77-3.301 2.695-.98.848-2.027 1.664-2.719 2.789-1.379 1.066-2.715 2.199-3.867 3.523.832.23 1.648.516 2.465.797-.535-.047-1.062-.16-1.57-.324-1.871-.613-3.762-1.195-5.539-2.063-.695-.367-1.539-.777-1.715-1.633-.309-1.512-.047-3.066.238-4.559.949-4.461 2.59-8.734 4.215-12.977.293-.727.836-1.309 1.379-1.852 1.824-1.926 4.246-3.141 6.715-3.984 3.703-1.211 7.605-1.688 11.484-1.754zm0 0" class="H I"/><path d="M143.183 133.969c3.242-1.375 6.836-1.59 10.301-1.277 3.309.359 6.437 1.547 9.609 2.48 3.543 1.059 7.043 2.254 10.516 3.535 1.027.43 2.113.891 2.812 1.813-.082.016-.242.051-.32.07l-19.965-6.551c-1.508-.453-3.047-.988-4.645-.781-4.176.395-8.215 1.629-12.227 2.793-.082-.023-.246-.078-.328-.102 1.262-.953 2.816-1.359 4.246-1.98zm0 0" fill="rgb(27.058824%,26.27451%,25.882353%)" stroke="rgb(27.058824%,26.27451%,25.882353%)"/><path d="M139.265 136.051c4.012-1.164 8.051-2.398 12.227-2.793 1.598-.207 3.137.328 4.645.781 6.703 2.031 13.316 4.34 19.965 6.551a20.71 20.71 0 0 1 .738.254c-.219.262-.445.543-.777.656-1.27.527-2.707.918-3.617 2.023-.656.754-.516 1.809-.508 2.734-2.441-2.098-5.324-3.711-8.449-4.48-3.715-.941-7.633-.773-11.34.098-1.645.379-3.23.941-4.816 1.504 2-1.473 4.426-2.16 6.617-3.273.402-.238.891-.52 1.016-1.012-.117-.445-.531-.73-.887-.984-1.484-.918-3.184-1.418-4.891-1.703-1.953-.348-3.945-.234-5.918-.227-1.797.027-3.574.426-5.371.32.457-.141.91-.305 1.367-.449zm0 0" class="J K"/><path d="M218.328 136.184c3.859-.906 7.75-1.781 11.703-2.121 1.066.043 2.242-.234 3.211.328.922.695 1.578 1.68 2.273 2.59 1.355 1.867 2.555 3.84 3.75 5.816.648 1.172 1.422 2.277 1.945 3.516-.719-.305-1.375-.734-2.055-1.113-1.07-.617-2.168-1.184-3.25-1.781-1.215-.648-2.488-1.176-3.723-1.793-.043-.434-.469-.605-.789-.805-1.211-.676-2.504-1.34-3.922-1.367-3.871-.188-7.531 1.309-11.258 2.121-1.504.367-3.039.531-4.566.75-1.27.23-2.609.395-3.719 1.109-.52.32-1.035.641-1.535.992l.328.09c-.746.223-1.508.402-2.285.473.309-1.715.98-3.398 2.156-4.695.621-.703 1.531-1.016 2.375-1.359 3.055-1.121 6.203-1.969 9.359-2.75zm0 0" class="a b"/><path d="M264.961 138.117c1.043.219 2.039.629 3.09.816l3.66 1.188c3.93 1.238 7.992 2.074 12.102 2.406.727.086 1.469.047 2.195.18 3.426.617 6.918.773 10.391.902 2.008.207 4.016-.246 6.02-.031-4.613 4.363-10.137 7.59-15.77 10.406-6.699 3.195-13.141 6.914-19.508 10.727-.098-1.004.383-1.926.766-2.82.57-1.285 1.383-2.453 2.41-3.41 2.129-2.297 4.859-3.887 7.594-5.336 5.437-2.742 11.277-4.609 17.215-5.879-1.141-.094-2.285-.004-3.426-.043-6.254-.188-12.609-.809-18.488-3.102-2.156-.875-4.25-1.988-6.016-3.523-.789-.785-1.672-1.504-2.234-2.48zm0 0" class="L M"/><path d="M216.214 141.574c3.727-.813 7.387-2.309 11.258-2.121 1.418.027 2.711.691 3.922 1.367.32.199.746.371.789.805-1.449-.586-2.895-1.215-4.426-1.531-1.273-.277-2.551.082-3.793.328-5.777 1.242-11.504 2.688-17.242 4.094l-.328-.09c.5-.352 1.016-.672 1.535-.992 1.109-.715 2.449-.879 3.719-1.109 1.527-.219 3.062-.383 4.566-.75zm0 0" fill="rgb(27.843137%,27.058824%,26.666667%)" stroke="rgb(27.843137%,27.058824%,26.666667%)"/><path d="M245.046 141.293c.309-.418.391-.945.598-1.414-.074 1.324-.395 2.621-.531 3.941l-.543 6.781c-.035.965-.113 1.938.031 2.898 0 1.766-.277 3.52-.391 5.281l-1.023 10.395c-.445 1.988-.359 4.035-.648 6.043l-1.621 12.316-1.625 9.539c-.078-1.254.012-2.508-.047-3.762.187-.609.352-1.223.437-1.855 2.402-15.617 3.797-31.375 4.895-47.137.125-1.438.094-2.891.406-4.309.02.426.023.855.062 1.281zm0 0" class="D E"/><path d="M223.964 140.422c1.242-.246 2.52-.605 3.793-.328 1.531.316 2.977.945 4.426 1.531l3.723 1.793c.027.273.152.559.074.832-.359.398-.895.559-1.363.789-1.227.535-2.41 1.355-3.051 2.57-.52 1.086-.129 2.309.238 3.375-2.937-1.688-6.156-2.953-9.52-3.414a19.51 19.51 0 0 0-6.566.195 20.59 20.59 0 0 0 .977-1.207c-.223-.211-.437-.438-.707-.586-1.437-.781-3.09-1.031-4.703-1.086-2.223-.012-4.426.336-6.641.387l-.207-.285c.777-.07 1.539-.25 2.285-.473l17.242-4.094zm0 0" class="J K"/><path d="M306.367 143.008c2.98-.402 5.867-1.285 8.691-2.305-.27.703-.668 1.344-.91 2.055-.867 2.582-2.66 4.727-4.613 6.551-2.117 1.934-4.973 2.559-7.555 3.578-3.125 1.18-6.035 2.844-8.93 4.492-2.867 1.633-5.57 3.535-8.156 5.582l-6.25 4.91c-1.336.93-2.781 1.973-4.484 1.902-1.137-.051-2.27.004-3.383.242h-.344c.965-.703 2.047-1.207 3.07-1.816.723-.43 1.52-.738 2.164-1.293-2.398-.234-4.859.535-7.207-.219.887-.703 1.922-1.184 2.875-1.797 3.195-1.891 6.418-3.742 9.695-5.488 2.68-1.449 5.445-2.73 8.156-4.117 5.516-2.855 10.859-6.184 15.352-10.539.648-.535 1.148-1.242 1.828-1.738zm0 0" class="L M"/><path d="M152.148 141.875c3.707-.871 7.625-1.039 11.34-.098 3.125.77 6.008 2.383 8.449 4.48 1.844 1.688 3.57 3.563 4.852 5.727-1.25-1.586-2.605-3.098-4.176-4.367-4.516-3.773-10.445-5.762-16.293-5.445-4.039.148-7.988 1.289-11.691 2.883-1.152.453-2.199 1.156-3.367 1.566 1.84-1.387 3.992-2.281 6.07-3.242 1.586-.563 3.172-1.125 4.816-1.504zm0 0" class="B C"/><path d="M144.629 145.055c3.703-1.594 7.652-2.734 11.691-2.883 5.848-.316 11.777 1.672 16.293 5.445.273 1.707 1.633 3.102 1.539 4.891-.965-.938-1.867-1.945-2.914-2.793-2.289-1.926-4.922-3.473-7.785-4.316-3.703-1.141-7.727-.996-11.414.125-3.215.98-6.195 2.625-8.93 4.578-.148-.285-.352-.57-.309-.902.039-.844.25-1.684.66-2.418.332-.613.848-1.105 1.168-1.727zm0 0" class="J K"/><path d="M152.039 145.524c3.687-1.121 7.711-1.266 11.414-.125 2.863.844 5.496 2.391 7.785 4.316 1.047.848 1.949 1.855 2.914 2.793.785.992 1.605 1.961 2.281 3.035l.074.156c-1.535.305-3.09.5-4.633.766-.871.113-1.727.34-2.605.355l.121-.113c1.094-.828 2.211-1.621 3.332-2.406-.887-1.32-2.004-2.465-3.191-3.508-1.449-1.383-3.203-2.445-5.082-3.113.148.43.309.855.441 1.297.687 2.41-.277 5.109-2.18 6.672-1.172.961-2.645 1.563-4.156 1.625-.539-.031-1.066-.16-1.598-.246-.816-.172-1.68-.254-2.406-.695-.895-.594-1.707-1.363-2.223-2.32-.809-1.449-.996-3.246-.48-4.828l.41-1.152a20.19 20.19 0 0 0-2.895 1.293c-1.5.723-2.941 1.586-4.25 2.625l5.262 3.238c-1.41-.277-2.75-.84-4.129-1.223l-5.18-1.633-.559-.203c.836-.715 1.707-1.387 2.602-2.027 2.734-1.953 5.715-3.598 8.93-4.578m1.383 2.203c-1.687 1.844-1.535 4.988.102 6.82 1.414 1.715 3.848 2.441 5.98 1.926 2.348-.473 4.402-2.43 4.855-4.832.113-1.113.129-2.309-.441-3.313-.258-.418-.457-1.008-.996-1.105-3.125-.789-6.469-.527-9.5.504zm0 0" class="B C"/><path d="M153.422 147.727c3.031-1.031 6.375-1.293 9.5-.504.539.098.738.688.996 1.105.57 1.004.555 2.199.441 3.313-.348-.559-.727-1.184-1.395-1.371-.414-.156-.84 0-1.23.137l-.242 1.09c.094-.926.066-1.98-.617-2.688-1.094-1.465-3.418-1.465-4.691-.254-.332.32-.605.695-.867 1.074-.789.156-1.578.781-1.512 1.668-.066.512.305.91.582 1.289-.402.598-.68 1.266-.863 1.961-1.637-1.832-1.789-4.977-.102-6.82zm0 0" fill="rgb(16.470588%,10.980392%,7.843137%)" stroke="rgb(16.470588%,10.980392%,7.843137%)"/><path d="M215.718 147.766a19.51 19.51 0 0 1 6.566-.195c3.363.461 6.582 1.727 9.52 3.414 2.066 1.273 4.148 2.605 5.852 4.355-1.676-1.098-3.27-2.336-5.043-3.281-3.008-1.691-6.285-2.949-9.699-3.441-3.023-.461-6.145-.246-9.082.602-3.57 1.02-6.836 2.969-9.543 5.52.973-1.188 2.145-2.207 3.355-3.145 2.367-1.852 5.137-3.199 8.074-3.828zm-59.535.789c1.273-1.211 3.598-1.211 4.691.254.684.707.711 1.762.617 2.688-.246 1.047-1.105 1.891-2.094 2.242-1.246.391-2.758.145-3.613-.918.699-.246 1.363-.875 1.262-1.684.059-.945-.895-1.52-1.73-1.508.262-.379.535-.754.867-1.074zm0 0" class="B C"/><path d="M164.449 147.68c1.879.668 3.633 1.73 5.082 3.113-1.266-.621-2.473-1.387-3.824-1.809-.266-.09-.551-.039-.816-.008l-.441-1.297zm-15.086 1.644a20.19 20.19 0 0 1 2.895-1.293l-.41 1.152-.09-.246-2.395.387zm64.469-.105c2.937-.848 6.059-1.063 9.082-.602 3.414.492 6.691 1.75 9.699 3.441.969 2.078 2.973 3.805 2.914 6.273-2.176-2.207-4.625-4.168-7.371-5.594-2.652-1.344-5.598-2.184-8.578-2.098-4.246-.078-8.316 1.664-11.766 4.063.691-1.125 1.738-1.941 2.719-2.789 1.078-.926 2.285-1.695 3.301-2.695zm0 0" class="J K"/><path d="M149.363 149.324c.809-.055 1.598-.262 2.395-.387l.09.246c-.516 1.582-.328 3.379.48 4.828.516.957 1.328 1.727 2.223 2.32l.039.156c-.883-.152-1.727-.453-2.586-.695-.551-.18-1.129-.309-1.629-.605l-5.262-3.238c1.309-1.039 2.75-1.902 4.25-2.625zm15.527-.347c.266-.031.551-.082.816.008 1.352.422 2.559 1.188 3.824 1.809 1.187 1.043 2.305 2.188 3.191 3.508l-3.332 2.406c-1.219.484-2.531.664-3.824.828a27.91 27.91 0 0 1-7.012-.262c1.512-.063 2.984-.664 4.156-1.625 1.902-1.563 2.867-4.262 2.18-6.672zm-11.086 2.32c-.066-.887.723-1.512 1.512-1.668.836-.012 1.789.563 1.73 1.508.102.809-.562 1.438-1.262 1.684-.48.031-.945-.098-1.398-.234-.277-.379-.648-.777-.582-1.289zm0 0" class="H I"/><path d="M161.734 150.406c.391-.137.816-.293 1.23-.137.668.188 1.047.813 1.395 1.371-.453 2.402-2.508 4.359-4.855 4.832-2.133.516-4.566-.211-5.98-1.926.184-.695.461-1.363.863-1.961.453.137.918.266 1.398.234.855 1.063 2.367 1.309 3.613.918.988-.352 1.848-1.195 2.094-2.242l.242-1.09m-.18 3.27c-1.305 1.18-3.102 1.457-4.766 1.766 1.648.66 3.586.289 5.02-.711.988-.691 1.531-1.91 1.414-3.113-.457.762-.957 1.516-1.668 2.059zm0 0" class="c d"/><path d="M207.812 154.703c3.449-2.398 7.52-4.141 11.766-4.063 2.98-.086 5.926.754 8.578 2.098 2.746 1.426 5.195 3.387 7.371 5.594.648.641 1.242 1.34 1.883 1.992-.832.238-1.695.281-2.539.422l-6.957.957c1.719-.84 3.566-1.387 5.285-2.23-2.492-2.547-5.449-4.684-8.777-5.953 1.02 2.039.973 4.629-.387 6.496-.66 1.02-1.676 1.715-2.723 2.277-.754.105-1.52.07-2.277.027.996-.395 2.09-.59 2.969-1.246.793-.512 1.422-1.25 1.844-2.098a5.3 5.3 0 0 0 .152-4.656c-.234-.488-.457-1.09-1.016-1.27-3.117-.953-6.574-.836-9.574.473-.543.25-.691.895-.859 1.418-.355 1.176-.266 2.457.219 3.578.512 1.273 1.5 2.34 2.73 2.93l1.34.664c-.793-.105-1.586-.215-2.352-.43-1.238-.914-2.242-2.203-2.617-3.723-.352-1.25-.168-2.57.191-3.797-1.508.77-2.84 1.844-4.102 2.969-.09.102-.363.25-.176.406.875.945 1.836 1.809 2.691 2.773-1.395-.297-2.703-.887-4.066-1.289-.816-.281-1.633-.566-2.465-.797 1.152-1.324 2.488-2.457 3.867-3.523zm0 0" class="B C"/><path d="M244.57 150.602l.242.008c.137.957-.039 1.941-.211 2.891-.145-.961-.066-1.934-.031-2.898zm0 0" class="e f"/><path d="M161.554 153.676c.711-.543 1.211-1.297 1.668-2.059.117 1.203-.426 2.422-1.414 3.113-1.434 1-3.371 1.371-5.02.711 1.664-.309 3.461-.586 4.766-1.766zm0 0" fill="rgb(39.215686%,27.843137%,21.176471%)" stroke="rgb(39.215686%,27.843137%,21.176471%)"/><path d="M213.41 153.524c3-1.309 6.457-1.426 9.574-.473.559.18.781.781 1.016 1.27a5.3 5.3 0 0 1-.152 4.656c-.219-.543-.371-1.164-.844-1.539-.398-.273-.898-.277-1.352-.363-.012-.785-.066-1.633-.535-2.293-.805-1.137-2.344-1.637-3.664-1.238-.57.16-1.055.52-1.52.883-.594.039-1.301.059-1.684.594-.441.512-.359 1.254-.129 1.844l-1.352 1.656c-.484-1.121-.574-2.402-.219-3.578.168-.523.316-1.168.859-1.418zm0 0" fill="rgb(16.862745%,10.980392%,7.843137%)" stroke="rgb(16.862745%,10.980392%,7.843137%)"/><path d="M217.453 153.543c1.32-.398 2.859.102 3.664 1.238.469.66.523 1.508.535 2.293-.348.887-.879 1.793-1.809 2.141-1.598.789-3.738.047-4.449-1.613.437-.098.922-.148 1.27-.469a1.55 1.55 0 0 0 .363-1.809c-.242-.426-.684-.672-1.094-.898.465-.363.949-.723 1.52-.883zm0 0" class="B C"/><path d="M103.144 154.016c.441-.008.703-.547 1.164-.438 1.219.137 2.488.129 3.664.5 1.141 1.043 1.785 2.551 2.125 4.039l-.07 6.359c-1.926-.496-3.926-.801-5.914-.59-2.387.164-4.707.852-6.906 1.777-.637-.785-.355-1.887.234-2.605.664-.813 1.508-1.488 2.48-1.879 1.59-.625 3.23-1.121 4.922-1.367l3.066-.465.137-.199.098-.152c-1.766-.574-3.582-1.023-5.437-1.18-2.887-.258-5.891-.082-8.59 1.063-2.117.875-4.008 2.5-4.902 4.66-.586 1.379-.582 3.016.09 4.367.578 1.344 1.66 2.348 2.691 3.336l4.289 3.457c.871.781 1.594 1.746 2 2.855.848 2.215.797 4.633 1.344 6.922.324 1.512.84 3.098 2.059 4.129 2.016 1.797 5.348 1.617 7.242-.273.746-.813 1.012-1.906 1.422-2.898.055 4.082.332 8.164.645 12.238.07.262-.211.379-.379.504-1.277.82-2.82 1.375-4.348 1.105-1.48-.199-2.746-1.199-3.59-2.406-1.793-2.469-2.699-5.426-3.992-8.164-1.203-2.801-3.25-5.137-5.496-7.137-2.504-2.305-5.34-4.23-7.687-6.707-1.664-1.617-2.895-3.652-3.711-5.824-.543-1.543-.91-3.211-.621-4.848.316-2.293 1.746-4.344 3.648-5.594 1.934-1.379 4.121-2.465 6.473-2.852 3.937-.668 7.887-1.238 11.852-1.734zm0 0" class="D E"/><path d="M207.961 157.133c1.262-1.125 2.594-2.199 4.102-2.969-.359 1.227-.543 2.547-.191 3.797.375 1.52 1.379 2.809 2.617 3.723-1.402-.246-2.723-.789-4.012-1.371l-2.691-2.773c-.187-.156.086-.305.176-.406zm6.289-2.113c.383-.535 1.09-.555 1.684-.594.41.227.852.473 1.094.898a1.55 1.55 0 0 1-.363 1.809c-.348.32-.832.371-1.27.469a3.62 3.62 0 0 1-1.273-.738c-.23-.59-.312-1.332.129-1.844zm0 0" class="H I"/><path d="M214.121 156.863a3.62 3.62 0 0 0 1.273.738c.711 1.66 2.852 2.402 4.449 1.613.93-.348 1.461-1.254 1.809-2.141.453.086.953.09 1.352.363.473.375.625.996.844 1.539-.422.848-1.051 1.586-1.844 2.098-.879.656-1.973.852-2.969 1.246a13.74 13.74 0 0 1-2.195-.207l-1.34-.664c-1.23-.59-2.219-1.656-2.73-2.93.422-.578.879-1.121 1.352-1.656m6.246 3.359c-1.477.637-3.105.32-4.648.207 1.098.934 2.648 1.184 4.035.977 1.336-.215 2.785-1.141 2.906-2.617-.687.594-1.422 1.152-2.293 1.434zm0 0" class="c d"/><path d="M112.933 157.617c.098.5.187 1.016.062 1.523l-.215.082c.02-.539.082-1.074.152-1.605zm0 0" class="F G"/><path d="M189.64 159.149a17.51 17.51 0 0 1 7.59-1.488c3.246.156 6.52 1.355 8.809 3.738 2.227 2.172 3.551 5.129 4.203 8.152.887 4.246.539 8.754-.992 12.809-.867 2.363-2.273 4.5-4.031 6.285-2.32 1.953-4.992 3.523-7.895 4.406-2.957.914-6.203 1.047-9.156.063-2.66-.906-5-2.699-6.629-5-1.652-2.309-2.801-4.973-3.465-7.734-.863-3.332-.387-6.91.973-10.039.727-1.762 1.801-3.34 2.906-4.875 2.145-2.551 4.633-4.93 7.687-6.316m5.355.809c-2.574.313-5.098 1.254-7.16 2.852-2.195 1.676-4.105 3.746-5.562 6.109-1.527 2.516-2.57 5.43-2.453 8.414.113 2.133.762 4.199 1.621 6.137 1.078 2.465 2.645 4.805 4.922 6.285 2.602 1.809 5.969 2.199 9.008 1.523 2.75-.602 5.301-1.93 7.543-3.621 2.121-1.648 3.543-4.055 4.461-6.566 1.469-4.219 1.605-8.949.121-13.184-.719-2.094-1.922-4.047-3.605-5.484-2.422-2.082-5.781-2.863-8.895-2.465zm0 0" class="B C"/><path d="M97.523 159.574c2.047-.598 4.176-.93 6.309-.875 1.414-.027 2.848.074 4.215.449l-.137.199c-1.008.238-2.051.266-3.066.465-1.691.246-3.332.742-4.922 1.367-.973.391-1.816 1.066-2.48 1.879-.59.719-.871 1.82-.234 2.605-1.738.781-3.395 1.734-4.969 2.809-.703-.793-1.34-1.766-1.363-2.859.078-1.23.793-2.313 1.617-3.172 1.367-1.414 3.18-2.297 5.031-2.867zm0 0" class="F G"/><path d="M220.367 160.223c.871-.281 1.605-.84 2.293-1.434-.121 1.477-1.57 2.402-2.906 2.617-1.387.207-2.937-.043-4.035-.977 1.543.113 3.172.43 4.648-.207zm0 0" class="g h"/><path d="M194.996 159.957c3.113-.398 6.473.383 8.895 2.465 1.684 1.438 2.887 3.391 3.605 5.484 1.484 4.234 1.348 8.965-.121 13.184-.918 2.512-2.34 4.918-4.461 6.566-2.242 1.691-4.793 3.02-7.543 3.621-3.039.676-6.406.285-9.008-1.523-2.277-1.48-3.844-3.82-4.922-6.285-.859-1.938-1.508-4.004-1.621-6.137-.117-2.984.926-5.898 2.453-8.414 1.457-2.363 3.367-4.434 5.562-6.109 2.062-1.598 4.586-2.539 7.16-2.852m2.613 3.469c-2.047.156-4.238.652-5.754 2.148-.934.875-1.41 2.32-.879 3.539.609 1.457 2.066 2.313 3.473 2.836 2.738.91 5.879.809 8.445-.586.719-.371 1.328-.938 1.812-1.586.77-1.035.75-2.574-.008-3.609-.836-1.172-2.164-1.883-3.508-2.277-1.168-.301-2.375-.516-3.582-.465zm0 0" fill="rgb(92.941176%,13.72549%,14.117647%)" stroke="rgb(92.941176%,13.72549%,14.117647%)"/></g><use xlink:href="#D" mask="url(#B)"/><g class="V"><path d="M197.609 163.426c1.207-.051 2.414.164 3.582.465 1.344.395 2.672 1.105 3.508 2.277.758 1.035.777 2.574.008 3.609-.484.648-1.094 1.215-1.812 1.586-2.566 1.395-5.707 1.496-8.445.586-1.406-.523-2.863-1.379-3.473-2.836-.531-1.219-.055-2.664.879-3.539 1.516-1.496 3.707-1.992 5.754-2.148zm0 0" fill="rgb(95.294118%,45.098039%,32.54902%)" stroke="rgb(95.294118%,45.098039%,32.54902%)"/><path d="M112.23 163.59l.062.125.023 8.727.047 5.371c-.004 1.207.145 2.418-.031 3.617-.234-.629-.156-1.32-.246-1.977l-.281-6.684c-.141-1.68-.07-3.367-.078-5.051.098-1.383.422-2.742.504-4.129zm0 0" class="e f"/><path d="M156.199 164.856c.613-.176 1.422-.066 1.742.566l2.68 5.102c.309.57.328 1.398-.172 1.867-.387.398-1.004.555-1.523.348-.48-.129-.719-.598-.941-1.004l-2.488-4.773c-.375-.746-.129-1.813.703-2.105zm0 0" class="B C"/><path d="M178.886 167.926c.937-.914 1.824-1.969 3.066-2.461-1.105 1.535-2.18 3.113-2.906 4.875-1.359 3.129-1.836 6.707-.973 10.039.664 2.762 1.812 5.426 3.465 7.734 1.629 2.301 3.969 4.094 6.629 5 2.953.984 6.199.852 9.156-.063 2.902-.883 5.574-2.453 7.895-4.406-.477 1.617-1.594 2.938-2.562 4.277-.965 1.32-2.32 2.285-3.742 3.035-1.617.848-3.453 1.086-5.246 1.188-1.539.086-3.078-.086-4.605-.223-2.969-.344-5.937-1.176-8.465-2.824-1.156-.691-2.051-1.715-2.996-2.656-.793-.805-1.418-1.766-1.902-2.785-1.012-2.277-1.273-4.797-1.348-7.266.117-2.398.332-4.809 1.004-7.125.629-2.363 1.77-4.629 3.531-6.34zm-76.414-1.922c.793-.102 1.59-.25 2.391-.195-.898.605-1.98 1.008-2.645 1.91-.676.898-.641 2.211-.027 3.133.633.977 1.437 1.832 2 2.859 1.426 2.543 2.469 5.387 2.547 8.336-.043 1.582-.488 3.367-1.863 4.305-.586.453-1.332.551-2.039.648-1.504-2.418-1.418-5.383-1.98-8.094-.367-2.102-1.34-4.113-2.879-5.586-1.406-1.258-2.961-2.332-4.414-3.531 2.523-2.102 5.707-3.273 8.91-3.785zm0 0" class="F G"/><path d="M104.863 165.809c.875-.191 1.781-.117 2.664-.047.84.031 1.68.082 2.504.258l.004 6.422c.164 2.168.023 4.344.094 6.512.117 1.078.039 2.168.066 3.25.035.797.156 1.602.039 2.395-.473.844-1.145 1.555-1.836 2.223-.867.805-1.91 1.512-3.117 1.621-1.016.051-1.918-.602-2.445-1.441.707-.098 1.453-.195 2.039-.648 1.375-.938 1.82-2.723 1.863-4.305-.078-2.949-1.121-5.793-2.547-8.336-.562-1.027-1.367-1.883-2-2.859-.613-.922-.648-2.234.027-3.133.664-.902 1.746-1.305 2.645-1.91zm140.988-.043c1.039.684 1.414 1.945 1.574 3.121.547 2.262.32 4.609.066 6.895-.492 3.926-1.43 7.777-2.543 11.563-.914 2.996-1.891 5.984-3.145 8.855 1.789-10.078 2.984-20.254 4.047-30.434zm0 0" class="D E"/><path d="M267.304 167.317c.379-.199.727-.566 1.156-.629 2.348.754 4.809-.016 7.207.219-.645.555-1.441.863-2.164 1.293l-3.07 1.816h.344c-2.754.773-5.207 2.309-7.578 3.879l-7.457 5.324-6.52 4.961.336-5.746c.242-.012.496-.047.703-.191 5.602-3.766 11.289-7.398 17.043-10.926zm0 0" class="N O"/><path d="M223.992 171.711c.707-.359 1.719.191 1.547 1.059-.262 1.27-.797 2.473-1.184 3.715-.168.449-.238.996-.668 1.285-.48.262-1.199.207-1.5-.309-.273-.336-.23-.801-.07-1.176l1.27-3.738c.121-.324.246-.711.605-.836zm0 0" class="B C"/><path d="M149.129 174.274c3.223-.531 6.496-.609 9.75-.496 3.398.195 6.832.719 9.973 2.094 1.336.609 2.645 1.441 3.445 2.715 1.625 2.395 1.371 5.949-.727 7.977-.785.801-1.836 1.223-2.895 1.512-.164-.313-.379-.598-.711-.73-3.047-1.512-6.34-2.57-9.727-2.891-3.312-.371-6.73.027-9.812 1.332-5.176 2.141-8.875 7.246-9.707 12.785-.477 3.047-.031 6.246 1.367 8.996 1.16 2.238 2.742 4.227 4.535 5.977 1.707 1.805 3.594 3.418 5.316 5.203 2.238 2.23 4.23 4.809 5.316 7.816.418 1.203.777 2.43 1.047 3.676-.754-1.301-1.41-2.668-2.312-3.875-2.473-3.383-5.711-6.086-8.945-8.684-3.789-3.07-7.762-6.102-10.496-10.223-3.742-5.629-4.801-13.027-2.637-19.465 1.43-4.43 4.441-8.344 8.422-10.715 2.664-1.66 5.727-2.531 8.797-3.004zm67.777 7.507c2.34-2.117 5.59-2.762 8.637-2.887 2.863-.16 5.824.602 8.082 2.438 1.125.879 2.043 2 2.809 3.207 1.645 2.633 2.488 5.695 2.812 8.773l.047 3.762-.605 3.617c-.387 2.125-1.039 4.191-1.516 6.301-.105.324-.102.711-.328.98-.148.16-.297.336-.359.555l-2.27 6.195c-.906 2.555-2.156 4.996-3.828 7.129-1.328 1.52-2.793 2.93-4.473 4.043-1.148.75-2.332 1.445-3.555 2.063l-8.121 3.844c-1.078.574-2.051 1.332-3.113 1.941 1.156-2.18 2.98-3.992 5.168-5.098 3.039-1.539 6.336-2.59 9.148-4.563 1.906-1.289 3.441-3.047 4.82-4.883 1.715-2.363 3.16-4.922 4.414-7.563 1.258-2.773 2.215-5.723 2.488-8.777.07-1.742.133-3.523-.359-5.215-.531-2.078-1.754-3.98-3.477-5.25-2.391-1.836-5.488-2.555-8.453-2.344-3.043.23-5.969 1.281-8.652 2.715-.949-.676-1.699-1.656-1.895-2.836-.539-2.918.352-6.148 2.578-8.148zm0 0" fill="rgb(71.372549%,28.235294%,24.705882%)" stroke="rgb(71.372549%,28.235294%,24.705882%)"/><path d="M148.426 185.785c3.082-1.305 6.5-1.703 9.812-1.332 3.387.32 6.68 1.379 9.727 2.891.332.133.547.418.711.73-.312.195-.609.418-.937.582-.32.031-.652.035-.937-.133-3.305-1.664-6.945-2.719-10.648-2.824-2.961-.074-5.984.516-8.574 2.012-3.07 1.73-5.398 4.715-6.426 8.105-.922 2.945-1.164 6.25.012 9.16 1.156 2.934 3.051 5.512 5.195 7.789 2.508 2.449 5.254 4.676 7.449 7.434 1.762 2.172 2.98 4.746 3.734 7.438 1.473 5.012 2.039 10.344 4.426 15.043 1.215 2.832 3.254 5.32 5.82 7.004 2.523 1.586 5.34 2.633 8.203 3.383 3.562.891 7.246 1.254 10.914 1.207 3.258-.098 6.566-.457 9.629-1.66 2.676-1.035 5.125-2.781 6.809-5.145 1.078-1.48 1.848-3.168 2.426-4.902 1.18-3.168 1.91-6.535 3.645-9.465 1.43-2.406 3.609-4.313 6.098-5.531 1.668-.867 3.437-1.508 5.125-2.336 1.281-.699 2.625-1.305 3.801-2.184 2.461-1.789 4.344-4.262 5.934-6.844 1.398-2.313 2.687-4.711 3.574-7.277.719-1.672 1.129-3.461 1.41-5.25.52-3.367-.129-7.246-2.758-9.598-2.16-2.129-5.332-3.047-8.301-2.668-2.668.277-5.207 1.289-7.555 2.566-2.23 1.238-4.348 2.711-6.207 4.469-.426.348-.805.879-1.414.836a2.17 2.17 0 0 0-1.449.484 9.03 9.03 0 0 1 .539-.391c-.035-.367-.039-.793.281-1.043 2.332-2.172 4.914-4.09 7.73-5.57 2.684-1.434 5.609-2.484 8.652-2.715 2.965-.211 6.062.508 8.453 2.344 1.723 1.27 2.945 3.172 3.477 5.25.492 1.691.43 3.473.359 5.215-.273 3.055-1.23 6.004-2.488 8.777-1.254 2.641-2.699 5.199-4.414 7.563-1.379 1.836-2.914 3.594-4.82 4.883-2.812 1.973-6.109 3.023-9.148 4.563-2.187 1.105-4.012 2.918-5.168 5.098-.668 1.008-1.121 2.137-1.578 3.254-1.379 3.508-2.285 7.234-4.258 10.473-1.262 2.09-3.062 3.828-5.16 5.043-2.832 1.668-6.078 2.473-9.312 2.836-3.586.395-7.207.266-10.785-.141-3.68-.449-7.355-1.27-10.742-2.824-2.633-1.211-5.082-2.93-6.902-5.223-1.645-2.051-2.754-4.48-3.547-6.98-1.094-3.246-1.621-6.648-2.539-9.941-.27-1.246-.629-2.473-1.047-3.676-1.086-3.008-3.078-5.586-5.316-7.816-1.723-1.785-3.609-3.398-5.316-5.203-1.793-1.75-3.375-3.738-4.535-5.977-1.398-2.75-1.844-5.949-1.367-8.996.832-5.539 4.531-10.645 9.707-12.785zm0 0" class="B C"/><path d="M147.578 187.711c2.59-1.496 5.613-2.086 8.574-2.012 3.703.105 7.344 1.16 10.648 2.824.285.168.617.164.937.133 1.082.406 1.945 1.215 2.875 1.879 2.203 1.656 4.012 3.754 5.883 5.766 2.211 2.199 4.586 4.273 7.312 5.793 2.566 1.43 5.363 2.523 8.297 2.844 2.863.352 5.777-.211 8.437-1.285.617-.242 1.285-.371 1.84-.754l3.199-1.906c.719-.367 1.414-.781 2.09-1.223a2.17 2.17 0 0 1 1.449-.484c.609.043.988-.488 1.414-.836 1.113-.289 2.172-.75 3.273-1.086 2.074-.652 4.242-1.102 6.422-1.004 1.469.047 2.961.449 4.164 1.32.855.648 1.562 1.508 2.027 2.484 1.23 2.691 1.383 5.84.488 8.66-.895 2.832-2.645 5.328-4.746 7.391-1.66 1.57-3.496 2.973-5.535 4.008-2.82 1.441-5.77 2.68-8.324 4.59-1.52 1.141-2.785 2.625-3.613 4.348-1.352 2.793-1.844 5.891-2.457 8.906-.656 3.035-1.687 6.016-3.324 8.66-1.305 2.094-3.066 3.922-5.203 5.148-1.32.742-2.801 1.152-4.289 1.391-.586.113-1.211-.078-1.77.164 2.742.082 5.484-.281 8.152-.91-1.652.723-3.434 1.066-5.211 1.285-3.73.449-7.5.074-11.191-.543-2.488-.453-5.02-.867-7.375-1.832-3.824-1.531-7.133-4.313-9.363-7.801-.215-.328-.453-.641-.691-.949-2.387-4.699-2.953-10.031-4.426-15.043-.754-2.691-1.973-5.266-3.734-7.438-2.195-2.758-4.941-4.984-7.449-7.434-2.145-2.277-4.039-4.855-5.195-7.789-1.176-2.91-.934-6.215-.012-9.16 1.027-3.391 3.355-6.375 6.426-8.105m8.531 12.18c-1.023.684-.969 2.039-1.152 3.125-.059.707-.48 1.391-.281 2.105.297.828.965 1.434 1.586 2.027 2.105 1.852 4.508 3.316 6.926 4.719a223.18 223.18 0 0 0 14.531 6.793c2.625 1.074 5.258 2.145 7.969 2.988 3.027.988 6.258 1.168 9.41.941 3.727-.309 7.418-1.137 10.898-2.523.605-.203 1.059-.668 1.559-1.039 1.582-1.137 3.199-2.223 4.902-3.164.941-.543 2.039-.793 2.902-1.477 1.207-.887 1.848-2.332 2.242-3.742.176-.738.285-1.645-.258-2.254-.637-.645-1.562-.809-2.426-.867l-5.984 6.063c-.457.504-.898 1.082-1.543 1.344-1.285.313-2.613.047-3.914.055l-16.422-1.051c-.539.016-.992-.32-1.492-.469-2.168-.746-4.422-1.184-6.652-1.68-4.25-.887-8.523-1.645-12.801-2.395-.422-.016-.645-.434-.863-.742-.973-1.66-1.672-3.504-1.875-5.434-.301-1.676-1.793-2.793-3.281-3.371-1.266-.445-2.773-.652-3.98.047zm0 0" class="H I"/><path d="M216.742 193.981c2.348-1.277 4.887-2.289 7.555-2.566 2.969-.379 6.141.539 8.301 2.668.621 1.051 1.238 2.125 1.578 3.313 1.043 3.422.816 7.117-.035 10.551-.074.324-.133.656-.195.984-.887 2.566-2.176 4.965-3.574 7.277-1.59 2.582-3.473 5.055-5.934 6.844-1.176.879-2.52 1.484-3.801 2.184-1.687.828-3.457 1.469-5.125 2.336-2.488 1.219-4.668 3.125-6.098 5.531-1.734 2.93-2.465 6.297-3.645 9.465-.727 1.086-1.297 2.27-2.016 3.363-1.91 2.934-4.652 5.395-7.953 6.59-2.668.629-5.41.992-8.152.91.559-.242 1.184-.051 1.77-.164 1.488-.238 2.969-.648 4.289-1.391 2.137-1.227 3.898-3.055 5.203-5.148 1.637-2.645 2.668-5.625 3.324-8.66.613-3.016 1.105-6.113 2.457-8.906.828-1.723 2.094-3.207 3.613-4.348 2.555-1.91 5.504-3.148 8.324-4.59 2.039-1.035 3.875-2.438 5.535-4.008 2.102-2.063 3.852-4.559 4.746-7.391.895-2.82.742-5.969-.488-8.66-.465-.977-1.172-1.836-2.027-2.484-1.203-.871-2.695-1.273-4.164-1.32-2.18-.098-4.348.352-6.422 1.004-1.102.336-2.16.797-3.273 1.086 1.859-1.758 3.977-3.23 6.207-4.469zm0 0" class="J K"/><path d="M232.597 194.082c2.629 2.352 3.277 6.23 2.758 9.598-.281 1.789-.691 3.578-1.41 5.25l.195-.984c.852-3.434 1.078-7.129.035-10.551-.34-1.188-.957-2.262-1.578-3.313zm0 0" fill="rgb(72.156863%,26.27451%,24.313725%)" stroke="rgb(72.156863%,26.27451%,24.313725%)"/><path d="M156.109 199.891c1.207-.699 2.715-.492 3.98-.047 1.488.578 2.98 1.695 3.281 3.371.203 1.93.902 3.773 1.875 5.434.219.309.441.727.863.742l12.801 2.395 6.652 1.68c.5.148.953.484 1.492.469l16.422 1.051c1.301-.008 2.629.258 3.914-.055.645-.262 1.086-.84 1.543-1.344l5.984-6.063c.863.059 1.789.223 2.426.867.543.609.434 1.516.258 2.254-.395 1.41-1.035 2.855-2.242 3.742-.863.684-1.961.934-2.902 1.477-1.703.941-3.32 2.027-4.902 3.164-.5.371-.953.836-1.559 1.039-3.48 1.387-7.172 2.215-10.898 2.523-3.152.227-6.383.047-9.41-.941-2.711-.844-5.344-1.914-7.969-2.988a223.18 223.18 0 0 1-14.531-6.793c-2.418-1.402-4.82-2.867-6.926-4.719-.621-.594-1.289-1.199-1.586-2.027-.199-.715.223-1.398.281-2.105.184-1.086.129-2.441 1.152-3.125zm0 0" class="B C"/><path d="M202.382 202.899c.957-.793 2.059-1.418 3.199-1.906l-3.199 1.906zm0 0" class="g h"/><path d="M236.484 208.528c.062-.219.211-.395.359-.555-.684 2.859-1.641 5.656-2.84 8.34-.637 1.453-1.539 2.766-2.352 4.121-.363.566-.691 1.168-1.129 1.684l-.137-.266c1.672-2.133 2.922-4.574 3.828-7.129l2.27-6.195zm0 0" class="D E"/><path d="M225.914 225.895c1.68-1.113 3.145-2.523 4.473-4.043l.137.266c-.375.844-1.004 1.559-1.477 2.355l-4.176 6.027c-.602.758-1.105 1.598-1.773 2.297.574-1.586 1.434-3.047 2.07-4.605.289-.746.816-1.453.746-2.297zm0 0" fill="rgb(94.509804%,59.607843%,46.666667%)" stroke="rgb(94.509804%,59.607843%,46.666667%)"/><path d="M119.629 222.239c.223.133.473.242.633.461a143.76 143.76 0 0 0 12.125 14.27c4.309 4.449 8.84 8.715 13.824 12.383 2.66 1.938 5.469 3.695 8.535 4.891 6.523 2.574 13.504 3.715 20.453 4.324 3.141.223 6.285.371 9.437.336-.793 2.801-1.734 5.555-2.637 8.324-1.02 2.383-1.496 4.973-2.641 7.309-5.496-3.047-10.855-6.336-16.25-9.563-2.793-1.621-5.398-3.539-8.078-5.336-2.359-2.098-4.937-3.922-7.508-5.75-9.02-6.266-18.27-12.195-27.57-18.023-.047-.805-.141-1.605-.105-2.414.047-1.141-.125-2.273-.074-3.414.043-.926-.105-1.844-.09-2.766.043-1.676-.164-3.352-.055-5.031zm0 0" class="D E"/><path d="M116.582 237.051c.566-.035 1.102.18 1.566.492l15.016 9.867 26.375 18.09 15.898 9.477 3.043 1.699a9.72 9.72 0 0 1 .156.703c-10.309-4.246-19.781-10.23-29.215-16.145-.937-.539-1.789-1.234-2.805-1.625.855 1.395 1.934 2.641 2.949 3.922 3.332 4.145 7.043 8 11.242 11.25 2.496 1.938 5.117 3.711 7.891 5.219.297.172.574.379.844.594-3.02-.156-5.973-.926-8.859-1.801-3.301-1.051-6.508-2.398-9.621-3.934-.441-.227-.906-.398-1.387-.527-.645-.211-1.164-.672-1.734-1.023-5.066-3.328-9.766-7.211-14.082-11.48-1.133-.969-2.055-2.148-3.121-3.184-4.312-4.641-8.316-9.594-11.836-14.879-.48-.816-1.199-1.527-1.383-2.492-.328-1.402-.816-2.777-.937-4.223zm0 0" class="P Q"/><path d="M203.754 245.93l2.016-3.363c-.578 1.734-1.348 3.422-2.426 4.902-1.684 2.363-4.133 4.109-6.809 5.145-3.062 1.203-6.371 1.563-9.629 1.66-3.668.047-7.352-.316-10.914-1.207-2.863-.75-5.68-1.797-8.203-3.383-2.566-1.684-4.605-4.172-5.82-7.004.238.309.477.621.691.949 2.23 3.488 5.539 6.27 9.363 7.801 2.355.965 4.887 1.379 7.375 1.832 3.691.617 7.461.992 11.191.543 1.777-.219 3.559-.563 5.211-1.285 3.301-1.195 6.043-3.656 7.953-6.59zm0 0" class="D E"/><path d="M113.242 246.879l3.621-2.199 4.758 6.094c4.715 5.73 9.902 11.074 15.641 15.762.32.27.73.465.937.852.344.75 1.039 1.219 1.555 1.836.918 1.074 1.93 2.059 2.91 3.074 4.598 4.91 9.277 9.785 13.145 15.32-.434-.16-.875-.305-1.309-.461-.883-.465-1.609-1.188-2.437-1.742-5.324-4.023-10.664-8.047-15.687-12.449-4.27-3.902-8.746-7.559-13.238-11.191-1.25-1.18-2.309-2.547-3.484-3.801-.875-.906-1.582-2-2.641-2.707-1.586-1.07-3.176-2.145-4.859-3.047-.293-.176-.672-.316-.758-.688-.309-.91-.516-1.852-.738-2.785.738-.777 1.703-1.277 2.586-1.867zm0 0" class="P Q"/><path d="M103.84 253.66c1.84-.605 3.945-1.031 5.785-.188 1.285.602 2.496 1.355 3.695 2.105 1.281.848 2.691 1.582 3.652 2.828l24.266 26.559c2.398 2.348 4.645 4.859 7.195 7.047 1.246 1.098 2.746 1.844 4.23 2.559 2.797 1.32 5.684 2.434 8.566 3.551 5.844 2.285 11.785 4.328 17.547 6.836 1.473.715 3.094 1.301 4.195 2.582 1.172 1.332 2.176 2.805 3.133 4.301a73.02 73.02 0 0 1 4.039 7.305c.398.762.301 1.648.297 2.48-.031 1.25.141 2.492.098 3.742l.066 14.48-.004 14.152h-6.945c1.211-5.246 1.141-10.688.723-16.023-.684-6.594-.977-13.23-1.93-19.793-.215-1.16-.316-2.363-.801-3.449-.18-.457-.59-.758-1.039-.906-8.75-3.129-17.254-7.039-25.125-12.027-9.707-6.094-18.332-13.844-25.828-22.535-4.395-5.023-8.223-10.523-12.711-15.465-1.719-1.844-3.469-3.688-5.516-5.172-2.406-1.844-5.051-3.332-7.59-4.969zm-28.86.278c3.41-.605 6.945-.238 10.238.781.492.137.957.395 1.266.82 3.152 4.047 6.324 8.082 9.191 12.344.691 1.121 1.527 2.219 1.789 3.543l5.012 23.402c.211 1.066.52 2.117.57 3.211.152 2.383.047 4.77.074 7.156.133 5.039.043 10.086.07 15.129-.094 1.668-.039 3.34-.094 5.016-.16 1.887.066 3.848-.621 5.656-1.176 3.32-2.609 6.539-4.043 9.754-1.141 2.543-2.449 5-3.668 7.504-.953 1.93-1.996 3.816-2.949 5.746h-7.184c4.066-12.145 8.109-24.309 11.617-36.633.852-3.063 1.691-6.137 2.273-9.266.359-2.02.336-4.094.125-6.129-.215-2.402-.535-4.793-.922-7.172-1.176-7.266-2.68-14.484-4.543-21.602-.625-2.199-1.156-4.473-2.34-6.453-1.562-2.664-3.602-5.004-5.715-7.238-.355-.375-.758-.719-1.031-1.16-.195-.309-.371-.648-.687-.844-1.027-.684-2.211-1.105-3.43-1.246-2.402-.301-4.824.254-7.086 1.059-3.215 1.133-6.199 2.836-9.051 4.703-2.109 1.41-4.187 2.887-6.09 4.582-1.52 1.441-3.004 2.938-4.305 4.59-2.016 2.504-3.82 5.168-5.645 7.813-.262.387-.637.672-1.043.891-.875.473-1.719 1.004-2.625 1.418 2.098-3.266 4.359-6.422 6.676-9.531 1.738-2.289 3.527-4.551 5.508-6.633.996-1.066 2.168-1.938 3.32-2.824 2.52-1.887 5.113-3.684 7.844-5.246 2.379-1.301 4.812-2.629 7.496-3.141zm0 0" class="i j"/><path d="M99.097 254.657c.602-.023 1.273-.473 1.828-.066 4.371 2.773 9.07 5.195 12.668 9.016 4.223 4.289 7.758 9.199 11.559 13.859a138.49 138.49 0 0 0 6.953 7.941c.973.918 1.797 1.98 2.812 2.855 3.258 3.289 6.75 6.336 10.391 9.188 9.609 7.531 20.5 13.289 31.883 17.566.824.355 1.746.527 2.512 1.016.336.953.418 1.977.594 2.973.758 5.625 1.125 11.289 1.613 16.941.309 2.969.516 5.957.484 8.945.023 3.063-.371 6.121-1.031 9.109h-.125c-1.035-5.863-1.426-11.816-2.285-17.703-.738-4.977-1.676-10.023-3.906-14.566-1.129-2.25-2.641-4.355-4.66-5.871-2.5-1.949-5.516-3.059-8.535-3.879-5.508-1.5-11.293-2.063-16.551-4.418-1.664-.773-3.297-1.707-4.625-2.992-1.477-1.457-2.719-3.129-3.953-4.793-3.508-4.828-6.723-9.871-10.293-14.656-1.797-2.383-3.668-4.742-5.914-6.707-.922-.75-1.957-1.516-3.18-1.578-1.254.027-2.336.832-3.156 1.727-1.707 1.906-2.754 4.297-3.707 6.652-2.227 5.848-3.59 11.984-4.766 18.125-.074.313-.187.621-.289.934-.121-2.078.039-4.16-.113-6.238-.02-1.363-.434-2.676-.695-4.008l-5.012-23.422c-.316-1.441-1.184-2.66-1.961-3.879-2.559-3.934-5.508-7.582-8.312-11.332 3.246-.348 6.52-.418 9.773-.738zm0 0" class="k l"/><path d="M146.617 259.61c1.016.391 1.867 1.086 2.805 1.625 9.434 5.914 18.906 11.898 29.215 16.145a9.72 9.72 0 0 0-.156-.703l11.523 6.539c.699.375 1.367.922 2.199.941 1.082.039 2.207.25 3.258-.109.004-.281.008-.563.031-.832.227.219.523.457.488.82-.137 1.191-.461 2.371-1.059 3.418-2.125 4.207-4.414 8.328-6.66 12.473-.203.379-.492.754-.484 1.211-.027 1.68.047 3.359-.023 5.039-.074.75-.863 1.078-1.508 1.176-.562.184-.809-.516-1.145-.828-.926-1.27-2.238-2.168-3.625-2.84-2.68-1.281-5.437-2.375-8.203-3.438-.633-.258-1.32-.43-1.859-.875-1.371-1.117-2.758-2.227-4.215-3.234-4.07-2.539-7.91-5.43-11.797-8.238a7.47 7.47 0 0 1-.902-.742l1.309.461c-3.867-5.535-8.547-10.41-13.145-15.32-.98-1.016-1.992-2-2.91-3.074-.516-.617-1.211-1.086-1.555-1.836 1.023.617 1.891 1.461 2.883 2.129 5.621 4.16 11.734 7.691 18.266 10.172 2.43.848 4.883 1.758 7.449 2.07-.625-.305-1.328-.371-1.977-.59-3.18-.898-6.27-2.113-9.246-3.551-2.004-1.02-4.043-2.004-5.898-3.285.48.129.945.301 1.387.527 3.113 1.535 6.32 2.883 9.621 3.934 2.887.875 5.84 1.645 8.859 1.801-.27-.215-.547-.422-.844-.594-2.773-1.508-5.395-3.281-7.891-5.219-4.199-3.25-7.91-7.105-11.242-11.25-1.016-1.281-2.094-2.527-2.949-3.922zm0 0" class="T U"/><path d="M79.539 262.266l3.18-1.941 3.613 3.992c1.461 1.844 2.937 3.766 3.652 6.051.969 2.938 1.664 5.961 2.398 8.965 1.512 6.609 2.844 13.266 3.719 19.996.246 2.164.543 4.34.41 6.527-.098 1.977-.633 3.895-1.094 5.813-2.047 8.109-4.609 16.074-7.129 24.043L82.219 354H69.176c1.887-2.133 2.965-4.957 3.043-7.816-.008-3.215-1.074-6.469-3.207-8.883-1.816-2.109-4.758-3.539-7.527-2.699 8.141-7.23 17.312-13.25 27.047-18.047.969-.496 1.992-.867 2.922-1.438-1.184.309-2.301.832-3.437 1.277a110.99 110.99 0 0 0-10.648 5.004c-2.004 1.039-3.914 2.242-5.883 3.348 1.117-1.273 2.48-2.277 3.66-3.48.719-.738 1.531-1.379 2.246-2.121 1.781-1.953 3.605-3.875 5.113-6.055 1.609-2.313 3-4.809 3.871-7.504 1.207-3.402 1.578-7.082 1.258-10.672-.297-3.023-.793-6.051-1.828-8.914-.93-2.594-2.332-5.109-4.508-6.836-2.074-1.688-4.781-2.414-7.41-2.395-3.348.09-6.582 1.117-9.656 2.402-5.082 2.227-9.789 5.238-14.27 8.512-5.965 4.359-11.539 9.234-16.922 14.297-.945.996-2.031 1.848-2.969 2.855-4.27 4.203-8.437 8.516-12.387 13.027-.211.227-.437.445-.656.668-.148-1.824.254-3.645.832-5.367.852-2.773 2.223-5.348 3.641-7.863.242-.414.43-.859.602-1.305-1.035.512-1.926 1.262-2.883 1.906-2.789 1.98-5.508 4.063-8.09 6.316-1.082.902-2.035 1.953-3.109 2.871-1.637 1.77-3.293 3.527-4.703 5.492-1.246 1.691-2.328 3.5-3.316 5.355v-11.227c3.828-2.973 7.703-5.898 11.273-9.184 1.824-1.297 3.98-1.969 6.004-2.867 1.656-.738 3.477-1.332 4.766-2.684.984-.996 1.273-2.449 2.152-3.52.777-.945 1.887-1.516 2.973-2.016 1.512-.652 2.973-1.41 4.398-2.234 4.75-2.77 9.293-5.879 13.867-8.93 2.715-1.508 5.395-3.082 8.008-4.762l26.098-16.25zm55.972 13.105c.957.602 1.746 1.441 2.648 2.125 7.613 6.203 15.488 12.078 23.508 17.73.539.387 1.121.727 1.613 1.184-3.18-1.094-6.289-2.402-9.355-3.781-1.312-.629-2.656-1.246-3.785-2.188-1.84-1.547-3.508-3.285-5.195-4.992-2.488-2.48-4.863-5.066-7.273-7.621-.719-.82-1.539-1.559-2.16-2.457zm0 0" class="P Q"/><path d="M64.23 279.172c3.074-1.285 6.309-2.313 9.656-2.402 2.629-.02 5.336.707 7.41 2.395 2.176 1.727 3.578 4.242 4.508 6.836 1.035 2.863 1.531 5.891 1.828 8.914.32 3.59-.051 7.27-1.258 10.672-.871 2.695-2.262 5.191-3.871 7.504-1.508 2.18-3.332 4.102-5.113 6.055-.715.742-1.527 1.383-2.246 2.121-1.18 1.203-2.543 2.207-3.66 3.48-1.117.828-2.332 1.516-3.457 2.34-5.012 3.445-9.66 7.445-13.758 11.965-4.008 4.438-7.469 9.434-9.867 14.949H.324l-.234-9.598c.012-.688 0-1.379-.09-2.059v-16.406c.988-1.855 2.07-3.664 3.316-5.355 1.41-1.965 3.066-3.723 4.703-5.492 1.074-.918 2.027-1.969 3.109-2.871 2.582-2.254 5.301-4.336 8.09-6.316.957-.645 1.848-1.395 2.883-1.906-.172.445-.359.891-.602 1.305-1.418 2.516-2.789 5.09-3.641 7.863-.578 1.723-.98 3.543-.832 5.367l.656-.668c3.949-4.512 8.117-8.824 12.387-13.027.937-1.008 2.023-1.859 2.969-2.855 5.383-5.063 10.957-9.938 16.922-14.297 4.48-3.273 9.187-6.285 14.27-8.512zm0 0" class="T U"/><path d="M114.179 278.563c.82-.895 1.902-1.699 3.156-1.727 1.223.063 2.258.828 3.18 1.578 2.246 1.965 4.117 4.324 5.914 6.707 3.57 4.785 6.785 9.828 10.293 14.656 1.234 1.664 2.477 3.336 3.953 4.793 1.328 1.285 2.961 2.219 4.625 2.992 5.258 2.355 11.043 2.918 16.551 4.418 3.02.82 6.035 1.93 8.535 3.879 2.02 1.516 3.531 3.621 4.66 5.871 2.23 4.543 3.168 9.59 3.906 14.566.859 5.887 1.25 11.84 2.285 17.703H94.344c1.07-1.879 1.973-3.844 2.996-5.746 1.309-2.605 2.57-5.23 3.805-7.871 1.32-2.867 2.652-5.742 3.578-8.766.637-2.02.48-4.168.629-6.254.035-1.516-.043-3.031.086-4.543l.004-13.348c-.062-1.066-.117-2.133-.023-3.199.102-.313.215-.621.289-.934 1.176-6.141 2.539-12.277 4.766-18.125.953-2.355 2-4.746 3.707-6.652zm0 0" class="m n"/><path d="M190.023 301.93l.395 1.316c1.211 5.43 2.594 10.832 3.289 16.363l4.129 28.199c.336 2.063.543 4.145.953 6.191h-5.934l-.004-14.973c-.16-2.328-.066-4.66-.09-6.988l-.066-9.926c-.035-1.188.16-2.441-.336-3.559-1.398-3.172-3.234-6.117-4.996-9.086.516-.242 1.047-.465 1.508-.809.785-.629 1.141-1.664 1.152-2.648.023-1.363-.02-2.723 0-4.082zm0 0" class="P Q"/><path d="M192.859 303.555c.879.684 1.637 1.516 2.301 2.41.723.988 1.02 2.199 1.355 3.359.57 1.91.641 3.926 1.117 5.859l4.121 17.957c.562 2.121.699 4.324 1.012 6.492L204.621 354h-3.57l-5.203-35.414c-.621-5.082-1.977-10.027-2.988-15.031zm0 0" class="i j"/><path d="M198.562 307.254l5.922 2.313 8.844 4.238c1.105.633 1.887 1.664 2.871 2.453 2.371 1.984 4.926 3.742 7.527 5.406.859.59 1.992.59 2.832 1.199.633 1.699 1.078 3.473 1.613 5.207.48 1.684 1.117 3.352 1.242 5.117l1.855 15.629.672 5.184h-10.027c1.809-1.91 3.301-4.121 4.395-6.52 1.086-2.391 1.77-5.012 1.691-7.656-.133-2.746-1.133-5.645-3.363-7.363-1.937-1.484-4.215-2.465-6.543-3.137-1.75-.48-3.578-.852-5.395-.621-1.32.156-2.516.914-3.352 1.945-1.301 1.582-1.898 3.605-2.344 5.578-.531 2.387-.617 4.84-.906 7.262l-.695-4.25c-.238-1.77-.73-3.484-1.113-5.223l-4.191-18.219c-.695-2.813-.977-5.703-1.535-8.543zm0 0" class="k l"/><path d="M88.015 316.395c1.137-.445 2.254-.969 3.437-1.277-.93.57-1.953.941-2.922 1.438-9.734 4.797-18.906 10.816-27.047 18.047-1.098.953-2.16 1.953-3.195 2.98a30.86 30.86 0 0 0-3.242 3.383c-.586.543-1.156 1.102-1.641 1.742A75.35 75.35 0 0 0 44.976 354h-.574c2.398-5.516 5.859-10.512 9.867-14.949 4.098-4.52 8.746-8.52 13.758-11.965 1.125-.824 2.34-1.512 3.457-2.34 1.969-1.105 3.879-2.309 5.883-3.348a110.99 110.99 0 0 1 10.648-5.004zm0 0" class="B C"/><path d="M229.515 324.336c.922.293 1.762.789 2.645 1.184.766.348 1.531.715 2.234 1.188-.227.68-.41 1.406-.254 2.129l3.98 25.164h-3.988l-.801-6.855-1.699-14.617c-.18-1.773-.82-3.445-1.293-5.152-.27-1.016-.691-1.992-.824-3.039zm0 0" fill="rgb(16.470588%,21.568627%,41.960784%)" stroke="rgb(16.470588%,21.568627%,41.960784%)"/><path d="M209.347 330.649c.836-1.031 2.031-1.789 3.352-1.945 1.816-.23 3.645.141 5.395.621 2.328.672 4.605 1.652 6.543 3.137 2.23 1.719 3.23 4.617 3.363 7.363.078 2.645-.605 5.266-1.691 7.656-1.094 2.398-2.586 4.609-4.395 6.52h-14.223l-1.594-10.512.906-7.262c.445-1.973 1.043-3.996 2.344-5.578zm0 0" class="m n"/><path d="M61.484 334.602c2.77-.84 5.711.59 7.527 2.699 2.133 2.414 3.199 5.668 3.207 8.883-.078 2.859-1.156 5.684-3.043 7.816H44.976a75.35 75.35 0 0 1 8.43-11.293 52.08 52.08 0 0 1-.586 1.875l2.227-3.617a30.86 30.86 0 0 1 3.242-3.383l3.195-2.98zm0 0" class="T U"/><path d="M53.406 342.707c.484-.641 1.055-1.199 1.641-1.742-.656 1.258-1.445 2.438-2.227 3.617l.586-1.875zm0 0" fill="rgb(23.529412%,34.901961%,51.372549%)" stroke="rgb(23.529412%,34.901961%,51.372549%)"/><path d="M0 342.344c.09.68.102 1.371.09 2.059L.324 354H0zm0 0" class="B C"/></g></svg>