<svg xmlns="http://www.w3.org/2000/svg" xmlns:xlink="http://www.w3.org/1999/xlink" width="250" height="250" xmlns:v="https://vecta.io/nano"><style><![CDATA[.B{fill:#8c9197}.C{fill:#a06b6c}.D{fill:#2b2b5c}.E{fill:#090840}.F{fill:#f9dcbe}]]></style><path d="M0 0v250h250V0H0z" class="F"/><path d="M105 16l4-2-4 2z" class="B"/><path d="M109 13l1 1-1-1z" class="C"/><path d="M110 13v1h4l-4-1z" class="D"/><path d="M114 13l1 1-1-1z" class="C"/><path d="M115 13v1h3l-3-1z" class="B"/><path d="M106 18h1l5-1c-2.815.546-3.081 1.143-3 4l-2-2h-1c3.87 7.85 15.025 9.27 23 9.914 20.297 1.639 40.794.505 61 3.371 10.84 1.538 26.406 6.202 26.641 19.715.12 6.897-4.871 14.351-6.641 21l-3-3 3-1v-1l-16 6c2.736 3.873 7.654 2.999 12 3v-1h-7v-1h6v-1l-2-2h5l-1 4 2-2c16.503.247 13.995-30.931 5.945-38.907C195.597 15.922 157.68 22.135 133 17.2c-6.405-1.281-24.179-7.701-27 .8z" class="E"/><use xlink:href="#B" class="D"/><path d="M121 14l1 1-1-1z" class="C"/><path d="M122 14l1 1-1-1z" class="B"/><path d="M105 17l4 4 3-4h-7m8-2l-4 3v5c10.747 3.496 18.528 5.534 28-2v-1c-2.961-.519-6.51-.346-7 3l-2-5-3-1-5 3v-1l2-1-9-3m11.667.333l.666.333-.666-.333z" class="D"/><path d="M126 15l1 1-1-1z" class="C"/><path d="M127 15l1 1-1-1z" class="B"/><path d="M105 16l1 1-1-1z" class="C"/><use xlink:href="#B" x="10" y="2" class="D"/><path d="M131 16l1 1-1-1z" class="C"/><path d="M132 16l1 1-1-1z" class="B"/><use xlink:href="#B" x="15" y="3" class="D"/><use xlink:href="#B" x="17" y="3" class="B"/><use xlink:href="#B" x="20" y="4" class="D"/><path d="M141 18l1 1-1-1z" class="C"/><path d="M142 18v1h3l-3-1z" class="B"/><path d="M105 19l1 1-1-1z" class="C"/><path d="M110 19l1 3h1l-2-3z" class="E"/><path d="M145 19v1h3l-3-1z" class="D"/><use xlink:href="#B" x="29" y="5" class="C"/><path d="M150 19v1h3l-3-1z" class="B"/><path d="M135 20l1 1-1-1z" class="E"/><path d="M155 20v1h8l-8-1z" class="D"/><path d="M163 20v1h4l-4-1z" class="C"/><path d="M167 20v1h4l-4-1z" class="B"/><path d="M106 21l1 1-1-1z" class="C"/><use xlink:href="#B" x="13" y="7" class="E"/><path d="M173 21v1h3l-3-1z" class="D"/><use xlink:href="#B" x="57" y="7" class="C"/><use xlink:href="#B" x="59" y="7" class="B"/><path d="M107 22l1 1-1-1m74 0v1h3l-3-1z" class="D"/><path d="M184 22l1 1-1-1z" class="C"/><use xlink:href="#B" x="66" y="8" class="B"/><path d="M108 23l1 1-1-1z" class="C"/><path d="M130 23l1 1-1-1z" class="E"/><path d="M188 23l1 1-1-1z" class="D"/><path d="M189 23l1 1-1-1z" class="C"/><path d="M190 23l1 1-1-1m-81 1l1 1-1-1z" class="B"/><path d="M110 24l1 1-1-1z" class="D"/><path d="M120 24l1 1-1-1z" class="E"/><use xlink:href="#B" x="73" y="10" class="D"/><path d="M194 24l1 1-1-1m-83 1l1 1-1-1z" class="B"/><use xlink:href="#B" x="-7" y="11" class="D"/><path d="M123 25v1h3l-3-1z" class="E"/><path d="M196 25l1 1-1-1z" class="D"/><path d="M197 25l1 1-1-1z" class="C"/><path d="M198 25l1 1-1-1z" class="B"/><path d="M114 26l1 1-1-1z" class="C"/><path d="M115 26l1 1-1-1z" class="D"/><path d="M200 26l1 1-1-1z" class="C"/><path d="M201 26l1 1-1-1m-84 1l1 1-1-1z" class="B"/><path d="M118 27l1 1-1-1z" class="C"/><path d="M119 27l1 1-1-1m83 0l1 1-1-1z" class="D"/><path d="M203 27l1 1-1-1m-81.333 1.333l.666.333-.666-.333z" class="B"/><path d="M123 28l1 1-1-1z" class="C"/><use xlink:href="#B" x="5" y="14" class="D"/><path d="M205 28l1 1-1-1z" class="C"/><path d="M206 28l1 1-1-1m-78 1v1h3l-3-1z" class="B"/><use xlink:href="#B" x="12" y="15" class="C"/><path d="M133 29v1h3l-3-1m74 0l1 1-1-1z" class="D"/><path d="M139 30v1h8l-8-1z" class="B"/><path d="M147 30v1h5l-5-1z" class="C"/><path d="M152 30v1h16l-16-1z" class="D"/><path d="M209 30l1 1-1-1z" class="C"/><path d="M172 31v1h6l-6-1z" class="B"/><path d="M178 31v1h3l-3-1z" class="C"/><path d="M181 31v1h3l-3-1m29 0l1 1-1-1z" class="D"/><path d="M211 31l1 1-1-1m-25 1v1h3l-3-1z" class="B"/><path d="M189 32l1 1-1-1z" class="C"/><use xlink:href="#B" x="71" y="18" class="D"/><path d="M212 32l1 1-1-1z" class="C"/><path d="M116 33v1h3l-3-1z" class="B"/><use xlink:href="#B" y="19" class="C"/><path d="M114 34l-5 3-4-1c0 2.436-.786 1.615-3 1l2 3-9 4 2 6-2-1v1c3.877 2.113 7.891-.763 12-1.532 6.786-1.271 18.484 3.817 20-5.468l16-1-5-2v-1h4v-1l-6-2v-1h2l-24-1z" class="D"/><use xlink:href="#B" x="10" y="19" class="C"/><path d="M131 33v1h3l-3-1m62.667.333l.666.333-.666-.333z" class="B"/><path d="M195 33l1 1-1-1z" class="C"/><path d="M196 33l1 1-1-1m17 0l1 1-1-1z" class="D"/><use xlink:href="#B" x="-9" y="20" class="B"/><use xlink:href="#B" x="-7" y="20" class="C"/><path d="M116.667 34.333l.666.333-.666-.333M121 36l-2-1h-1v1l6 1-1-2h5l-7 1m9-2v1h4l-4-1z" class="E"/><path d="M138 34l1 1-1-1z" class="C"/><path d="M139.667 34.333l.666.333-.666-.333m59 0l.666.333-.666-.333z" class="B"/><path d="M200 34l1 1-1-1m14 0l1 1-1-1z" class="D"/><use xlink:href="#B" x="-13" y="21" class="B"/><path d="M108 35l1 1-1-1z" class="C"/><path d="M112 35v1h3l-3-1m24 0v1l6 2v1h-4v1l5 2-16 1c-2.63 8.856-13.872 4.133-21 5.468-3.833.718-8.016 3.808-11 .532l2 1v-1l-2-5 9-5c-7.311-1.428-16.576 4.477-23 7.757-10.302 5.261-15.262 14.179-23.089 22.204C49.287 77.801 34.378 87.228 22 89c3.835 5.497 13.035 4 19 4v6l-9-1c.038 13.119 7.196 26.477 21 26v7h1l1-12c6.235 1.01 8.839-1.162 11-7l3 2 7-5c1.169 3.955 1.761 6.71-1 10-.773 9.075-9.438 5.448-12.961 11.183-3.588 5.839-.471 14.58-1.039 20.817h-4l-2-18h-1c.037 13.422 3.798 26.384 8.075 39 3.506 10.343 8.103 19.035 5.925 30 7.148 3.604 12.233-1.31 11.786-9-1.007-17.352-8.054-31.06-5.786-49h1c-.879 6.99-.943 15.059 6 19 1.388-17.586.762-36.312 12.761-50.829 12.268-14.843 52.272-21.652 66.025-6.131 7.673 8.659 8.703 25.008 11.214 35.96h1l-4-31h1l4 39h1l1-2c1.015 2.334 1.421.91 2-1l-2 1 3-3v15l-1-3h-1c-.653 1.96-1 2.554-1 0h-1v8h-1v-8h-1l2 12c-4.377 1.539-9.38 17.816-8 22l3-1v3l4-5 3 2c4.542-9.35 6.416-19.902 9.151-30 5.776-21.325 14.385-47.886 7.849-70h-1c1.542 11.97-10.363 6.477-15.682 2.081-3.584-2.962-.622-7.332-2.536-10.937-1.75-3.295-5.867-3.85-7.782-7.144l3 2-2-4c6.534-2.064 5.186-11.277 7-17l2 2h1l2-2v4h1l-1-3 4 3c-8.005-16.822-29.608-23.251-47-24z" class="E"/><path d="M141 35v1h3l-3-1z" class="D"/><path d="M144 35l1 1-1-1z" class="C"/><use xlink:href="#B" x="26" y="21" class="B"/><path d="M202 35l1 1-1-1z" class="C"/><path d="M203 35l1 1-1-1m12 0l1 1-1-1z" class="D"/><path d="M103 36l1 1-1-1z" class="B"/><path d="M104 36l1 1-1-1z" class="C"/><path d="M107.667 36.333l.666.333-.666-.333M111 36l1 1-1-1m4 0l1 1-1-1m10 0v1h3l-3-1m9.667.333l.666.333-.666-.333z" class="E"/><path d="M146 36v1h3l-3-1z" class="D"/><path d="M149 36l1 1-1-1z" class="C"/><path d="M150 36l1 1-1-1m54 0l1 1-1-1z" class="B"/><path d="M205 36l1 1-1-1z" class="C"/><path d="M216 36l1 1-1-1z" class="D"/><path d="M100 37l1 1-1-1z" class="B"/><path d="M101 37l1 1-1-1z" class="C"/><path d="M103 37v1h3l-3-1m6 0l1 1-1-1m23 0l1 1-1-1z" class="E"/><use xlink:href="#B" x="32" y="23" class="D"/><path d="M153 37l1 1-1-1z" class="C"/><path d="M154 37l1 1-1-1z" class="B"/><path d="M207 37l1 1-1-1z" class="C"/><path d="M217 37l1 1-1-1z" class="D"/><path d="M97 38l1 1-1-1z" class="B"/><path d="M98 38l1 1-1-1z" class="C"/><path d="M99 38l1 1-1-1z" class="D"/><path d="M111 38l1 1-1-1m26 0l1 1-1-1z" class="E"/><use xlink:href="#B" x="36" y="24" class="D"/><use xlink:href="#B" x="38" y="24" class="B"/><path d="M209 38l1 1-1-1z" class="D"/><path d="M218 38l1 1-1-1z" class="C"/><path d="M95 39l1 1-1-1z" class="B"/><path d="M96.667 39.333l.667.333-.667-.333z" class="D"/><path d="M107 39v1h3l-3-1m28 0l1 1-1-1z" class="E"/><use xlink:href="#B" x="39" y="25" class="D"/><path d="M160 39l1 1-1-1z" class="C"/><path d="M161 39l1 1-1-1z" class="B"/><path d="M210 39l1 1-1-1z" class="C"/><path d="M92 40l1 1-1-1z" class="B"/><path d="M93 40l1 1-1-1z" class="C"/><path d="M94 40l1 1-1-1z" class="D"/><path d="M128 40l1 1-1-1z" class="E"/><use xlink:href="#B" x="42" y="26" class="D"/><path d="M163.667 40.333l.666.333-.666-.333M211 40l1 1-1-1z" class="B"/><path d="M219.333 40.667l.334.667-.334-.667z" class="D"/><path d="M90 41l1 1-1-1z" class="B"/><path d="M91 41l1 1-1-1z" class="C"/><path d="M92 41l1 1-1-1m72 0l1 1-1-1z" class="D"/><path d="M165 41l1 1-1-1z" class="C"/><path d="M166 41l1 1-1-1z" class="B"/><path d="M212 41l1 1-1-1z" class="C"/><path d="M220 41l1 1-1-1M88 42l1 1-1-1z" class="B"/><path d="M89.667 42.333l.667.333-.667-.333M166 42l1 1-1-1z" class="D"/><path d="M167 42l1 1-1-1z" class="C"/><path d="M168 42l1 1-1-1z" class="B"/><path d="M213 42l1 1-1-1z" class="D"/><path d="M220 42l1 1-1-1z" class="C"/><path d="M86 43l1 1-1-1z" class="B"/><path d="M87 43l1 1-1-1m81 0l1 1-1-1z" class="D"/><path d="M169 43l1 1-1-1z" class="C"/><path d="M220 43l1 1-1-1z" class="D"/><path d="M84 44l1 1-1-1z" class="C"/><path d="M85 44l1 1-1-1m85 0l3 3-3-3z" class="D"/><path d="M171 44l1 1-1-1m43 0l1 1-1-1z" class="B"/><path d="M82 45l1 1-1-1z" class="C"/><path d="M83 45l1 1-1-1z" class="D"/><path d="M172 45l1 1-1-1m49 0l1 1-1-1z" class="B"/><path d="M80 46l1 1-1-1z" class="C"/><path d="M81 46l1 1-1-1z" class="D"/><path d="M173 46l1 1-1-1z" class="B"/><path d="M215 46l1 1-1-1z" class="C"/><path d="M221 46v3h1l-1-3z" class="D"/><path d="M78 47l1 1-1-1z" class="B"/><path d="M79 47l1 1-1-1z" class="D"/><path d="M174 47l1 1-1-1z" class="C"/><path d="M215 47l1 1-1-1M76 48l1 1-1-1z" class="B"/><path d="M77 48l1 1-1-1m97.667.333l.666.333-.666-.333z" class="D"/><path d="M75 49l1 1-1-1z" class="C"/><path d="M176 49l2 2-2-2z" class="D"/><path d="M177 49l1 1-1-1z" class="B"/><path d="M216 49v6h1l-1-6z" class="D"/><path d="M73 50l1 1-1-1z" class="B"/><path d="M74 50l1 1-1-1z" class="D"/><path d="M72 51l1 1-1-1z" class="C"/><path d="M73 51l1 1-1-1m105 0l1 1-1-1z" class="D"/><path d="M71 52l1 1-1-1m108 0l1 1-1-1M70 53l1 1-1-1z" class="C"/><path d="M180 53l2 2-2-2z" class="B"/><path d="M221 53v3h1l-1-3z" class="D"/><path d="M69 54l1 1-1-1z" class="C"/><path d="M180 54l1 1-1-1z" class="D"/><path d="M68 55l-1 2 1-2z" class="B"/><path d="M174 55c-2.537 6.013-.545 13.613-7 17l2 4-3-2c1.409 4.024 5.954 4.204 7.651 8.058 1.573 3.571-.981 7.876 2.666 10.567C181.564 96.496 195.077 102.63 192 90l2-5h-1v3h-1l-1-12 5 1v-1l-2-2c3.632 1.421 4.981.294 8-2v-1l-9 2v-1l3-1v-1l-11-8-3-5 1 2h-1l-3-3 1 3h-1v-4l-2 2-3-2m7 0l1 1-1-1M68 56l1 1-1-1z" class="D"/><path d="M182 56l1 1-1-1z" class="C"/><path d="M215 56l1 1-1-1z" class="B"/><path d="M221 56l1 1-1-1z" class="C"/><path d="M67 57l1 1-1-1z" class="D"/><path d="M183 57l1 1-1-1z" class="B"/><path d="M215 57l1 1-1-1z" class="C"/><path d="M221.333 57.667l.334.667-.334-.667z" class="B"/><path d="M66 58l1 1-1-1z" class="C"/><path d="M184 58l1 1-1-1z" class="B"/><path d="M215 58l1 1-1-1z" class="D"/><path d="M65 59l1 1-1-1z" class="C"/><path d="M214 59l1 1-1-1M64 60l-1 2 1-2z" class="B"/><path d="M65 60l1 1-1-1z" class="D"/><path d="M180 60l1 1-1-1z" class="E"/><path d="M214 60l1 1-1-1z" class="C"/><path d="M220 60l1 1-1-1M64 61l1 1-1-1z" class="D"/><path d="M177 61l2 2v-2h-2m8 0l1 1-1-1z" class="E"/><path d="M186 61l1 1-1-1z" class="B"/><path d="M214 61l1 1-1-1z" class="D"/><path d="M220 61l1 1-1-1z" class="B"/><path d="M63 62l1 1-1-1z" class="D"/><path d="M184 62v4l4-1v-1l-4-2z" class="E"/><path d="M187 62l1 1-1-1m26 0l1 1-1-1z" class="B"/><path d="M62 63l1 1-1-1z" class="C"/><path d="M176 63l1 1-1-1z" class="E"/><path d="M212 63l1 1-1-1z" class="B"/><path d="M219 63l1 1-1-1z" class="D"/><path d="M61 64l1 1-1-1z" class="B"/><path d="M186 64l1 1-1-1z" class="D"/><path d="M189 64l1 1-1-1m21 0l1 1-1-1z" class="B"/><path d="M211 64l1 1-1-1z" class="D"/><path d="M219 64l1 1-1-1M60 65l-7 8 7-8z" class="B"/><path d="M210 65l1 1-1-1M60 66l1 1-1-1z" class="D"/><path d="M188 66v1l2 1-4 3-1-3 2 1v-1l-2-1-1 5 3 2h1l3-6-1 8h2 1l-3-3 3-2-5-5z" class="E"/><path d="M209 66l-2 3 2-3z" class="B"/><path d="M218 66l1 1-1-1M59 67l1 1-1-1m150 0l-2 3 3 3c1.254-2.844 1.598-4.101-1-6m3 0l2 4-4 3c3.593-1.832 4.927-3.815 2-7z" class="D"/><path d="M218 67l1 1-1-1z" class="B"/><path d="M58 68l1 1-1-1z" class="D"/><path d="M193 68l1 1-1-1z" class="B"/><path d="M208 68l1 1-1-1m9 0l1 1-1-1M57 69l1 1-1-1z" class="D"/><path d="M194 69l1 1-1-1z" class="C"/><path d="M205 69l1 1-1-1z" class="B"/><path d="M206 69l1 1-1-1z" class="D"/><path d="M217 69l1 1-1-1z" class="B"/><path d="M56 70l1 1-1-1z" class="D"/><path d="M196 70l1 1-1-1z" class="C"/><path d="M197.667 70.333l.666.333-.666-.333M202 70l1 1-1-1z" class="B"/><path d="M203 70l1 1-1-1z" class="C"/><path d="M204 70l1 1-1-1z" class="D"/><path d="M216 70l1 1-1-1z" class="C"/><path d="M55 71l1 1-1-1z" class="D"/><path d="M193 72v1l6-1h-6z" class="E"/><path d="M203 72l2 2v1h-6v1l9 1v-5h-5m12-1l1 1-1-1M54 72l1 1-1-1m160 0l1 1-1-1z" class="D"/><path d="M52 73l1 1-1-1z" class="C"/><path d="M196 73l1 1-1-1z" class="E"/><path d="M208 73l1 1-1-1z" class="D"/><path d="M213 73l1 1-1-1M51 74l1 1-1-1z" class="C"/><path d="M209.333 74.667l.334.667-.334-.667z" class="D"/><path d="M212 74l1 1-1-1z" class="B"/><path d="M49 75l1 1-1-1z" class="C"/><path d="M50 75l1 1-1-1z" class="D"/><path d="M210 75l1 1-1-1z" class="C"/><path d="M211 75l1 1-1-1z" class="B"/><path d="M47 76l1 1-1-1z" class="C"/><path d="M48 76l1 1-1-1z" class="D"/><path d="M188 76l-2 1 4 6-1 5h1c.621-2.847 1.286-5.543-2-6l2-5-2-1m3.333.667l.334.667-.334-.667z" class="E"/><path d="M193 76l1 1-1-1z" class="B"/><path d="M208 76l1 1-1-1z" class="C"/><path d="M209 76l1 1-1-1M45 77l1 1-1-1z" class="B"/><path d="M46 77l1 1-1-1z" class="D"/><path d="M192 77l1 1-1-1z" class="C"/><use xlink:href="#B" x="77" y="63" class="B"/><path d="M198 77v1h6l-6-1z" class="C"/><use xlink:href="#B" x="85" y="63" class="B"/><path d="M44 78l1 1-1-1z" class="D"/><path d="M184 78l1 1-1-1z" class="E"/><path d="M188 78v4h1l1-4h-2z" class="D"/><path d="M190 78l1 1-1-1z" class="C"/><path d="M42 79l-2 3 2-3z" class="B"/><path d="M43 79l1 1-1-1z" class="D"/><path d="M190.333 79.667l.334.667-.334-.667z" class="B"/><path d="M42 80l1 1-1-1z" class="D"/><path d="M192 80v8h1l-1-8z" class="E"/><path d="M193 80v4h1l-1-4z" class="B"/><path d="M41 81l1 1-1-1z" class="D"/><path d="M38 82l1 1-1-1z" class="B"/><path d="M39 82l1 1-1-1z" class="C"/><path d="M40 82l1 1-1-1m35 62h1c2.702-25.727 14.57-54.149 43-59.611 14.908-2.864 21.742 1.473 34.361 7.861 1.995 1.01 2.715-.842 3.639-2.25l1 5c5.632 2.926 7.967 10.001 9 16 1.282-3.697-.657-7.469-2.065-11C158.321 83.406 140.07 80.126 124 82.428 92.56 86.932 76.291 113.941 75 144z" class="D"/><path d="M34.667 83.333l.667.333-.667-.333z" class="B"/><path d="M36 83l1 1-1-1z" class="C"/><path d="M37 83l1 1-1-1z" class="D"/><path d="M31 84l1 1-1-1z" class="B"/><path d="M32 84l1 1-1-1z" class="C"/><path d="M33 84l1 1-1-1z" class="D"/><path d="M193 84l1 1-1-1z" class="C"/><path d="M29 85l1 1-1-1z" class="B"/><path d="M30.667 85.333l.667.333-.667-.333z" class="D"/><path d="M28 86l1 1-1-1z" class="C"/><path d="M187 86l1 1-1-1z" class="E"/><path d="M26 87l1 1-1-1z" class="B"/><path d="M27 87l1 1-1-1z" class="D"/><path d="M22.667 88.333l.667.333-.667-.333z" class="B"/><path d="M24 88l1 1-1-1z" class="C"/><path d="M25.667 88.333l.667.333-.667-.333z" class="D"/><path d="M20 89l1 1-1-1z" class="C"/><path d="M21 89l-1 2h2l-1-2z" class="D"/><path d="M194 89v5h1l-1-5M19 90l1 1-1-1m1 1l2 2-2-2z" class="B"/><path d="M21 91l3 3-3-3z" class="C"/><path d="M23 91l1 1-1-1z" class="D"/><path d="M23 92l1 3 17 3c-1.343-4.046-4.065-3.953-8-4v1h6v1l-16-4z" class="B"/><path d="M25 92l1 1-1-1z" class="C"/><path d="M26.667 92.333l.667.333-.667-.333z" class="D"/><path d="M183 92l1 1-1-1z" class="E"/><path d="M29 93v1l10 2v-1h-6v-1l8 1-12-2z" class="C"/><path d="M40 93l1 1-1-1z" class="D"/><path d="M25 94v1l7 2v-1l-7-2m169 0v3h1l-1-3z" class="C"/><path d="M26 95l1 1-1-1m2 1l1 1-1-1z" class="B"/><path d="M41.333 96.667l.333.667-.333-.667z" class="D"/><path d="M30 97l1 1-1-1z" class="B"/><path d="M31 99l4-1-4 1z" class="D"/><path d="M35 97v1h3l-3-1z" class="C"/><path d="M194 97v15h1l-1-15M40 98l1 1-1-1m88 0v1h21l-21-1z" class="D"/><path d="M31 99l1 1-1-1z" class="C"/><use xlink:href="#B" x="3" y="85" class="D"/><use xlink:href="#B" x="5" y="85" class="C"/><path d="M126 99l1 1-1-1m24 0l1 1-1-1z" class="B"/><path d="M151 99l1 1-1-1m-120 1l1 1-1-1m87.667.333l.666.334-.666-.334z" class="D"/><path d="M120 100l1 1-1-1z" class="C"/><path d="M121.667 100.333l.666.334-.666-.334M152 100l1 1-1-1z" class="B"/><path d="M153 100l1 1-1-1z" class="D"/><path d="M31 101l1 1-1-1z" class="C"/><path d="M111 101l1 1-1-1z" class="D"/><path d="M112 101v1h3l-3-1z" class="C"/><path d="M115.667 101.333l.666.334-.666-.334z" class="B"/><path d="M154 101l1 1-1-1z" class="C"/><path d="M31 102l1 1-1-1m76 0l1 1-1-1z" class="D"/><path d="M108 102l1 1-1-1z" class="C"/><path d="M109 102l1 1-1-1m46 0l1 1-1-1z" class="B"/><path d="M156 102l1 1-1-1z" class="D"/><path d="M31 103l1 1-1-1z" class="C"/><path d="M104 103l1 1-1-1z" class="D"/><path d="M105 103l1 1-1-1z" class="C"/><path d="M157 103l1 1-1-1z" class="D"/><use xlink:href="#C" class="B"/><path d="M102 104l1 1-1-1z" class="D"/><path d="M103 104l1 1-1-1z" class="B"/><path d="M158 104l1 1-1-1m-57 1l1 1-1-1m58 0l1 1-1-1z" class="C"/><path d="M32 106l2 3-2-3m17 0l-3 6 3-6m50 0l1 1-1-1z" class="D"/><path d="M100 106l1 1-1-1z" class="B"/><path d="M160 106l1 1-1-1m-62 1l1 1-1-1z" class="C"/><path d="M161 107l1 1-1-1z" class="D"/><path d="M32 108l1 1-1-1z" class="B"/><path d="M97 108l1 1-1-1z" class="C"/><path d="M161 108l1 1-1-1z" class="B"/><path d="M33 109l1 1-1-1z" class="C"/><path d="M42 109v9h1l1-9h-2m27 5l-3-2c-2.812 5.207-4.923 7.437-11 7l1 3-3 15h1v-4h1l2 18h4c1.325-6.359-1.976-13.515 1.063-19.902C65.02 124.885 76.03 128.629 75 119c3.528-2.698 2.539-6.278 1-10l-7 5z" class="D"/><path d="M96 109l1 1-1-1m66 0l1 1-1-1z" class="C"/><path d="M33 110l2 2-2-2z" class="B"/><path d="M34 110l1 1-1-1m60 0l1 1-1-1z" class="D"/><path d="M95 110l1 1-1-1z" class="C"/><path d="M162 110l1 1-1-1z" class="B"/><path d="M94 111l1 1-1-1z" class="C"/><path d="M163.333 111.667l.334.666-.334-.666M168 111l5 54h1v-8h1c.506 2.529.494 2.529 1 0h1l1 3v-15l-3 3 2-1-3 3h-1c0-11.832 1.396-28.527-5-39z" class="D"/><path d="M195 111l1 1-1-1z" class="B"/><path d="M35 112l1 1-1-1m11 0l1 1-1-1z" class="C"/><path d="M52 112l1 1-1-1z" class="D"/><path d="M72 112l1 1-1-1z" class="E"/><path d="M93 112l1 1-1-1z" class="C"/><path d="M36 113l2 2-2-2m9.667.333l.667.334-.667-.334M45 118l1-3-1 5 7-6-7 4z" class="D"/><path d="M75 113l-1 3 1-3z" class="E"/><path d="M92 113l1 1-1-1z" class="D"/><path d="M163 113l1 1-1-1z" class="C"/><path d="M36 114l1 1-1-1z" class="B"/><path d="M45 114l1 1-1-1z" class="C"/><path d="M92 114l1 1-1-1z" class="B"/><path d="M194 114v6h1l-1-6z" class="D"/><path d="M37 115l1 1-1-1z" class="B"/><path d="M91 115l1 1-1-1z" class="C"/><path d="M164 115l1 1-1-1m-126 1l1 1-1-1z" class="D"/><path d="M47 116l1 1-1-1z" class="C"/><path d="M90 116l1 1-1-1z" class="D"/><path d="M164 116l1 1-1-1m-126 1l1 1-1-1m52 0l1 1-1-1z" class="B"/><path d="M89 118l1 1-1-1m76 0l1 1-1-1m-125.667 1.667l.333.666-.333-.666z" class="D"/><path d="M165 119l1 1-1-1z" class="C"/><path d="M54 120l1 1-1-1z" class="D"/><path d="M88 120l1 1-1-1z" class="C"/><path d="M165 120l1 1-1-1z" class="B"/><use xlink:href="#D" class="C"/><path d="M39 121l3 4-3-4z" class="B"/><path d="M40 121l1 1-1-1z" class="C"/><path d="M88 121l1 1-1-1z" class="B"/><path d="M41 122l1 1-1-1m46 0l1 1-1-1m79 0l1 1-1-1z" class="D"/><path d="M194 122v3h1l-1-3z" class="B"/><path d="M42 123v1l4 1v-1l-4-1z" class="D"/><path d="M55 123l1 1-1-1m16 0l1 1-1-1z" class="E"/><path d="M87 123l1 1-1-1m79 0l1 1-1-1m-124 1l1 1-1-1z" class="C"/><path d="M47 124v1h4l-4-1z" class="D"/><path d="M51 124l1 4h1l-2-4z" class="C"/><path d="M52 124l1 1-1-1z" class="D"/><path d="M87 124l1 1-1-1m79.333.667l.334.666-.334-.666M47 125l1 1-1-1z" class="B"/><path d="M55 125l1 1-1-1z" class="E"/><path d="M86 125l1 1-1-1m107 0v3h1l-1-3z" class="D"/><path d="M86 126l1 1-1-1z" class="B"/><use xlink:href="#D" x="-27" y="6" class="D"/><path d="M140 127v1h8l-8-1m-88 1v5h1l-1-5z" class="B"/><path d="M85 128l1 1-1-1m51.667.333l.666.334-.666-.334z" class="C"/><path d="M161 135l-2-4c-6.87-.992-12.705-4.179-19.995-2.656-2.41.504-7.069 2.859-4.919 6.057 2.837 4.218 21.9.419 26.914.599z" class="D"/><path d="M150.667 128.333l.666.334-.666-.334z" class="C"/><path d="M152 128l1 1-1-1z" class="B"/><path d="M167.333 128.667l.334.666-.334-.666M193 128l1 1-1-1z" class="C"/><path d="M85 129l1 1-1-1m10 0l1 1-1-1z" class="B"/><path d="M96 129v1h4l-4-1z" class="C"/><path d="M89 135l1-2h-1l-1 2c5.722 3.038 20.645 2.606 27 1-3.265-11.83-19.454-6.783-26-1z" class="D"/><path d="M109 129v1l4 1v-1l-4-1z" class="C"/><path d="M112 129l1 1-1-1z" class="B"/><path d="M134 129l1 1-1-1m20 0l1 1-1-1z" class="C"/><use xlink:href="#D" x="-1" y="9" class="B"/><path d="M84 130l1 1-1-1z" class="D"/><path d="M93 130l1 1-1-1m20 0l1 1-1-1z" class="B"/><path d="M133 130l1 1-1-1m23 0l1 1-1-1z" class="C"/><path d="M157 130l1 1-1-1m10.333.667l.334.666-.334-.666z" class="B"/><path d="M192 130v3h1l-1-3z" class="D"/><path d="M84 131l1 1-1-1z" class="C"/><path d="M91 131l1 1-1-1m23 0l1 1-1-1z" class="B"/><path d="M157 131l1 1-1-1z" class="E"/><path d="M159 131l2 2-2-2m-69 1l1 1-1-1z" class="C"/><path d="M91 132l1 1-1-1z" class="E"/><use xlink:href="#D" x="-80" y="12" class="C"/><path d="M132 132v3h1l-1-3z" class="B"/><path d="M159 132l1 1-1-1z" class="E"/><path d="M168.333 132.667l.334.666-.334-.666M83 133l1 1-1-1z" class="D"/><path d="M90 133l-1 2h2l-1-2z" class="E"/><path d="M192 133l1 1-1-1m-109 1l1 1-1-1z" class="C"/><path d="M155.667 134.333l.666.334-.666-.334z" class="E"/><path d="M168 134l1 1-1-1z" class="C"/><path d="M192 134l1 1-1-1m-108.667 1.667l.333.666-.333-.666z" class="B"/><path d="M87 135l-1 2 1-2z" class="C"/><path d="M88 135l-2 3 4-2-2-1z" class="E"/><path d="M133 135l1 1-1-1m11 0v1h5l-5-1z" class="C"/><path d="M149 135v1h3l-3-1z" class="B"/><path d="M152 135v1h8l-8-1z" class="C"/><path d="M168 135l1 1-1-1z" class="B"/><use xlink:href="#D" x="-3" y="15" class="D"/><path d="M96 136v1h14l-14-1m18 0l1 1-1-1z" class="C"/><path d="M134 136v1h10l-10-1z" class="B"/><path d="M140 136l1 1-1-1z" class="F"/><path d="M169 136l1 1-1-1z" class="D"/><use xlink:href="#C" x="22" y="33" class="C"/><use xlink:href="#C" x="54" y="33" class="B"/><path d="M87 137l1 1-1-1z" class="D"/><path d="M88 137v1h3l-3-1z" class="C"/><path d="M91.667 137.333l.667.334-.667-.334M110 137v1h4l-4-1z" class="B"/><path d="M169 137l1 1-1-1m22 0l1 1-1-1m-105 1l1 1-1-1z" class="C"/><path d="M169 138l1 1-1-1m22.333.667l.334.666-.334-.666M53 139v3h1l-1-3z" class="B"/><path d="M82 139v3h1l-1-3m88 0l1 1-1-1z" class="D"/><path d="M144 140v1l3 1-3-2z" class="B"/><path d="M146 140v1h4l-4-1z" class="C"/><path d="M150 140l2 2v1h-6v1l12 1-8-5z" class="B"/><path d="M170 140l1 1-1-1z" class="C"/><path d="M190 140l1 1-1-1m-136 1v4h1l-1-4z" class="D"/><path d="M142 141v2h2l-2-2z" class="B"/><path d="M143 141v1h3l-3-1z" class="C"/><path d="M138 145v1l14-3c-4.518-2.95-9.63-.303-14 2z" class="F"/><path d="M170 141l1 1-1-1z" class="B"/><path d="M190 141l1 1-1-1m-107.667 1.667l.333.666-.333-.666z" class="C"/><path d="M140 142l-2 3 2-3z" class="B"/><path d="M141 142l1 1-1-1z" class="C"/><path d="M190.333 142.667l.334.666-.334-.666M94 143v2l2-2h-2z" class="B"/><path d="M96 143v1h8l-8-1z" class="C"/><path d="M104 143v1l3 3h1l1-2-5-2z" class="B"/><path d="M152 143v1l4 1v-1l-4-1z" class="F"/><path d="M171 143l1 1-1-1z" class="C"/><path d="M74 144v10h1l-1-10z" class="D"/><path d="M82 144v5h1l-1-5m10 0v4h1l-1-4z" class="B"/><path d="M93 144l1 1-1-1z" class="C"/><path d="M92 146v1l16-1c-4.924-2.95-10.974-2.419-16 0z" class="F"/><path d="M142 144l1 1-1-1z" class="B"/><path d="M143 144l-1 2 1-2z" class="C"/><path d="M143 145v1l10-1h-10z" class="D"/><path d="M153 144l-1 2 1-2z" class="C"/><use xlink:href="#D" x="-23" y="24" class="B"/><path d="M189 144l1 1-1-1z" class="D"/><path d="M54 145l1 1-1-1z" class="C"/><path d="M97 145l1 1-1-1z" class="B"/><path d="M98 145v1h4l-4-1z" class="C"/><path d="M102.667 145.333l.666.334-.666-.334M137 145l1 1-1-1z" class="B"/><path d="M140 145l1 1-1-1z" class="C"/><path d="M141 145l1 1-1-1z" class="D"/><path d="M142 146l2 6c4.589-.816 6.454-2.241 7-7l-9 1z" class="B"/><path d="M153 145v1l4 2-4-3z" class="E"/><path d="M155 145l1 1-1-1z" class="C"/><path d="M158 145l1 1-1-1z" class="B"/><path d="M189 145l1 1-1-1z" class="C"/><path d="M54.333 146.667l.333.666-.333-.666M94 146l1 1-1-1z" class="B"/><path d="M95 146l2 2-2-2z" class="C"/><path d="M96 146l1 1-1-1z" class="D"/><path d="M97 146l1 1-1-1z" class="E"/><path d="M98 146v1h8l-8-1z" class="D"/><path d="M106 146v2h2l-2-2m32 0l-2 3 2-3z" class="C"/><path d="M139 146l1 1-1-1z" class="D"/><path d="M140 146l1 1-1-1z" class="B"/><path d="M145 146l2 3-2-3z" class="D"/><path d="M146 146l2 3-2-3z" class="E"/><path d="M147 146l1 1-1-1z" class="D"/><path d="M153 146l2 2-2-2z" class="B"/><path d="M154 146l1 1-1-1z" class="D"/><path d="M156 146l1 1-1-1z" class="C"/><path d="M189 146l1 1-1-1z" class="B"/><use xlink:href="#C" x="28" y="43" class="E"/><path d="M93 147l-2 3 2-3z" class="D"/><path d="M94 147l-2 3 2-3z" class="E"/><path d="M95 147l1 1-1-1z" class="D"/><path d="M98 147l1 6c4.509-.147 7.741-.927 7-6h-2v4l-2-4h-4z" class="B"/><path d="M101 149h3l-1-2-2 2z" class="E"/><path d="M108 147l1 1-1-1z" class="D"/><path d="M109 147l3 5h1l-4-5z" class="B"/><path d="M155 147l1 1-1-1m2 0l1 1-1-1z" class="D"/><path d="M158 147l-2 1v1l2-2z" class="C"/><path d="M188.333 147.667l.334.666-.334-.666m-133 1l.333.666-.333-.666z" class="D"/><path d="M91 148l1 1-1-1m3 0l1 1-1-1m15 0l1 1-1-1z" class="C"/><path d="M131 148l1 1-1-1m6 0l1 1-1-1z" class="B"/><path d="M145 148l1 1-1-1z" class="F"/><path d="M82 149v6h1l-1-6z" class="C"/><path d="M90 149l1 1-1-1m3 0l1 1-1-1z" class="B"/><path d="M101 149l2 2v-2h-2z" class="D"/><path d="M110 149l1 1-1-1m78 0l1 1-1-1m-133 1l1 1-1-1z" class="C"/><path d="M103 150l1 1-1-1z" class="F"/><path d="M111 150l1 1-1-1z" class="C"/><path d="M188 150l1 1-1-1m-132.667 1.667l.333.666-.333-.666z" class="B"/><path d="M173 151v4h1l1-4h-2z" class="E"/><path d="M187.333 151.667l.334.666-.334-.666m-131 2l.333.666-.333-.666z" class="D"/><path d="M73 153v2h2l-2-2z" class="B"/><path d="M187 153l1 1-1-1z" class="C"/><path d="M171 154v4h1l-1-4z" class="B"/><use xlink:href="#D" x="-19" y="34" class="E"/><path d="M187 154l1 1-1-1m-130.667 1.667l.333.666-.333-.666z" class="B"/><path d="M72 155v4h1l-1-4z" class="D"/><path d="M82 155v3h1l-1-3z" class="B"/><use xlink:href="#D" x="-8" y="35" class="D"/><path d="M75 156l1 1-1-1z" class="C"/><path d="M57 157l1 1-1-1z" class="D"/><path d="M75 157l1 1-1-1m111.333.667l.334.666-.334-.666z" class="B"/><use xlink:href="#C" x="26" y="54" class="C"/><path d="M73 158v3h1l-1-3z" class="B"/><path d="M76 158l1 1-1-1m5 0v3h1l-1-3z" class="D"/><path d="M171 158v4h1l-1-4z" class="C"/><use xlink:href="#D" x="-9" y="38" class="D"/><path d="M76 159l1 1-1-1z" class="B"/><path d="M58.333 160.667l.333.666-.333-.666M77 160l1 1-1-1z" class="D"/><path d="M185 160l1 1-1-1m-112 1l1 1-1-1z" class="C"/><path d="M77 161l1 1-1-1z" class="B"/><path d="M81 161l1 1-1-1z" class="C"/><use xlink:href="#D" x="-9" y="41" class="B"/><path d="M58 162l1 1-1-1z" class="C"/><path d="M73 162v4h1l-1-4m5 0l3 2v-1l-3-1z" class="D"/><path d="M81 162l1 1-1-1z" class="B"/><path d="M171 162l1 6-2 3h1l3-2-3-7m13.333.667l.334.666-.334-.666z" class="D"/><path d="M58 163l1 1-1-1m20 0l1 1-1-1z" class="B"/><path d="M59 164l1 1-1-1z" class="D"/><path d="M79.667 164.333l.667.334-.667-.334z" class="B"/><path d="M184 164l1 1-1-1m-125 1l1 1-1-1z" class="C"/><path d="M74.333 165.667l.333.666-.333-.666m96 0l.334.666-.334-.666M184 165l1 1-1-1m-125 1l1 1-1-1z" class="B"/><use xlink:href="#C" x="29" y="62" class="D"/><use xlink:href="#D" x="-23" y="46" class="E"/><path d="M183 166l1 1-1-1z" class="D"/><path d="M74 167l1 1-1-1m96 0l1 1-1-1m13 0l1 1-1-1m-123 1l1 1-1-1z" class="C"/><use xlink:href="#C" x="43" y="64" class="D"/><path d="M183 168l1 1-1-1m-123 1l1 1-1-1z" class="B"/><path d="M182.333 169.667l.334.666-.334-.666M61 170l1 1-1-1z" class="D"/><path d="M75.333 170.667l.333.666-.333-.666M107 170l1 6-1-6m62.333.667l.334.666-.334-.666z" class="B"/><path d="M61 171l1 1-1-1m121 0l1 1-1-1z" class="C"/><path d="M61 172l1 1-1-1z" class="B"/><path d="M75 172l1 1-1-1z" class="C"/><use xlink:href="#D" x="-54" y="52" class="B"/><path d="M169 172v3h1l-1-3z" class="C"/><path d="M182 172l1 1-1-1z" class="B"/><path d="M62 173l1 1-1-1m13.333.667l.333.666-.333-.666M181 173l1 1-1-1z" class="D"/><path d="M62 174l1 1-1-1z" class="C"/><use xlink:href="#C" x="45" y="70" class="B"/><path d="M112 177h7c-2.636-2.439-4.841-3.224-7 0z" class="C"/><path d="M116 174l1 1-1-1m12 0l1 1-1-1z" class="B"/><path d="M129 174l-4 2v1c1.733.087 11.307.981 6-2l1 2h-1l-2-3z" class="C"/><path d="M130.667 174.333l.666.334-.666-.334z" class="B"/><path d="M140.333 174.667l.334.666-.334-.666M181 174l1 1-1-1z" class="C"/><path d="M62 175l1 1-1-1z" class="B"/><path d="M63.333 175.667l.333.666-.333-.666m51.334-.334l.666.334-.666-.334z" class="D"/><path d="M118 175l1 1-1-1m7 0l1 1-1-1z" class="B"/><path d="M129 175l3 2-3-2m40 0v4h1l-1-4z" class="D"/><path d="M181 175l1 1-1-1z" class="B"/><path d="M76 176l1 1-1-1m31 0l2 3-2-3z" class="C"/><path d="M119 176l1 1-1-1m14 0l1 1-1-1m4 3l4-3-4 3z" class="B"/><use xlink:href="#D" x="-14" y="56" class="D"/><path d="M63 177l1 1-1-1z" class="C"/><use xlink:href="#C" x="45" y="73" class="D"/><path d="M129 177l1 1-1-1m-66 1l1 1-1-1m46 0v2h2l-2-2m10 0l1 1-1-1m49.333.667l.334.666-.334-.666z" class="B"/><path d="M180 178l1 1-1-1z" class="C"/><path d="M64 179l1 1-1-1z" class="D"/><path d="M77 179l1 1-1-1m59 0l1 1-1-1z" class="B"/><use xlink:href="#D" x="-15" y="59" class="D"/><path d="M180 179v5h1l-1-5m-116 1l1 1-1-1z" class="B"/><path d="M77 180l1 1-1-1m91 0l1 1-1-1z" class="C"/><path d="M65 181l1 1-1-1m12.333.667l.333.666-.333-.666M168 181l1 1-1-1z" class="D"/><path d="M65 182l1 1-1-1z" class="C"/><path d="M78.333 182.667l.333.666-.333-.666M167 182l-1 2 1-2m-102 1l1 1-1-1z" class="B"/><path d="M167 183l1 1-1-1m-101 1l1 1-1-1z" class="D"/><path d="M78.333 184.667l.333.666-.333-.666M166 184l1 1-1-1z" class="C"/><path d="M179 184l-2 3 2-3z" class="D"/><path d="M66 185l1 1-1-1z" class="C"/><path d="M165 185l1 1-1-1z" class="D"/><path d="M179 185l1 1-1-1m-113 1l1 1-1-1z" class="B"/><path d="M78 186l1 1-1-1m86 0l1 1-1-1z" class="D"/><path d="M178 186l1 1-1-1z" class="B"/><path d="M67 187l1 1-1-1z" class="D"/><path d="M79.333 187.667l.333.666-.333-.666M163 187l1 1-1-1z" class="B"/><path d="M177 187l1 1-1-1m-110 1l1 1-1-1m96 0l1 1-1-1z" class="C"/><path d="M164 188l2 3-2-3m9 0l-1 3c2.565-.551 2.86-1.14 1-3m3 0l1 1-1-1z" class="D"/><path d="M177 188l1 1-1-1m-110 1l1 1-1-1z" class="B"/><path d="M79 189l1 1-1-1z" class="C"/><path d="M110 191v1l32 3c-9.199-6.349-21.432-7.263-32-4m53-2l1 1-1-1z" class="B"/><path d="M176 189l1 1-1-1z" class="C"/><path d="M68 190l1 1-1-1m11 0l1 1-1-1z" class="D"/><path d="M164 190l1 1-1-1z" class="C"/><path d="M167 190l1 3h1v-3h-2z" class="D"/><path d="M175 190l1 1-1-1z" class="B"/><path d="M68 191l1 1-1-1z" class="C"/><path d="M80 191v6h1l-1-6z" class="B"/><path d="M108 193v1l3-1-6 2 7 2v4l8-1v1h-5v1l13-1 16-5v-1h-9v-1h2v-1l-7-1v1h4v1h-20v-1h14c-5.809-2.46-14.055-1.761-20 0m58-2l1 1-1-1m6 0l1 1-1-1z" class="C"/><path d="M173 191l1 1-1-1m-104.667 1.667l.333.666-.333-.666M167 192l1 1-1-1z" class="B"/><path d="M171 192l1 1-1-1z" class="C"/><path d="M69 193v4h1l-1-4z" class="D"/><path d="M107 193l2 3-2-3z" class="B"/><path d="M108 195l3-2-3 2z" class="F"/><path d="M114 193l1 1-1-1z" class="B"/><path d="M115 193v1h19l-19-1z" class="F"/><path d="M169.667 193.333l.666.334-.666-.334z" class="B"/><path d="M135 194v1h3l-3-1z" class="F"/><path d="M104 195l1 1-1-1m-36 1l-1 3 1-3z" class="B"/><path d="M112 196v1h3l-3-1m6 0v1h10l-10-1m11 0v1l5 1v-1l-5-1z" class="F"/><path d="M142 196l1 1-1-1z" class="B"/><use xlink:href="#C" x="48" y="93" class="D"/><path d="M108 197l4 4-4-4z" class="B"/><path d="M109 197v1h3l-3-1m27 0l-2 1v1l2-2z" class="F"/><path d="M128 199l1 2c-3.678-.432-6.666-1.262-9 2 6.143-.017 15.233-.497 19-6l-11 2z" class="B"/><path d="M68 198l1 1-1-1z" class="D"/><path d="M112.667 198.333l.666.334-.666-.334M118 198v1l3 1-3-2z" class="F"/><path d="M67 199l3 5-3-5z" class="D"/><path d="M79 199l1 1-1-1z" class="B"/><path d="M127 199l1 1-1-1z" class="F"/><path d="M66 200l1 1-1-1z" class="B"/><path d="M78 200l1 1-1-1z" class="D"/><path d="M113 202l3-2-3 2z" class="B"/><path d="M116 200v1h4l-4-1m12 0l1 1-1-1z" class="F"/><path d="M78 201l1 1-1-1z" class="B"/><path d="M67 202l1 1-1-1z" class="C"/><path d="M77 202l-1 2 1-2z" class="D"/><path d="M117 202l1 1-1-1z" class="B"/><path d="M73 203l2 2v-2h-2z" class="D"/><path d="M77 203l1 1-1-1m-9 1l1 1-1-1z" class="B"/><path d="M69 204v1h3l-3-1z" class="C"/><path d="M72.667 204.333l.667.334-.667-.334z" class="B"/><path d="M75 204l1 1-1-1z" class="C"/><path d="M76 204l1 1-1-1z" class="B"/><path d="M161 219c-18.642 17.014-40.448 17.672-61 5 10.421 14.445 31.373 12.308 46 6.396 4.824-1.95 14.599-5.444 15-11.396z" class="C"/><path d="M162 219l1 1-1-1m-1 1l1 1-1-1m-4 2l1 1-1-1m1 1l1 1-1-1m1 1l1 1-1-1m-59 1l1 1-1-1m55 0l1 1-1-1m-54 1l1 1-1-1m2 0l1 1-1-1m48 0l1 1-1-1m-2 1l1 1-1-1m3 0l1 1-1-1m-49 1l1 1-1-1m41 1l1 1-1-1m8 0l1 1-1-1m4 0l1 1-1-1m-15 1l1 1-1-1m4 0l1 1-1-1m-37 1l1 1-1-1m30 0l1 1-1-1m5 0l1 1-1-1m-33 1l1 1-1-1m5 0l1 1-1-1m18 0l1 1-1-1m7 0l1 1-1-1m-29 1l1 1-1-1m2 0l1 1-1-1m7 0v1h8l-8-1m-2 1l1 1-1-1m12 0l1 1-1-1z" class="B"/><defs ><path id="B" d="M119.667 14.333l.666.333-.666-.333z"/><path id="C" d="M31.333 104.667l.333.666-.333-.666z"/><path id="D" d="M194.333 120.667l.334.666-.334-.666z"/></defs></svg>